<svg width="260" height="260" viewBox="0 0 260 260" fill="none" xmlns="http://www.w3.org/2000/svg">
<rect x="28" y="27" width="213" height="206" fill="#66C6F3"/>
<path fill-rule="evenodd" clip-rule="evenodd" d="M249.185 43.5043C249.185 25.5861 234.66 11.0604 216.741 11.0604H43.7067C25.7884 11.0604 11.2627 25.5861 11.2627 43.5043V216.539C11.2627 234.458 25.7884 248.983 43.7067 248.983H216.741C234.66 248.983 249.185 234.458 249.185 216.539V43.5043ZM227.556 43.5043C227.556 37.5316 222.714 32.6897 216.741 32.6897H43.7067C37.7339 32.6897 32.892 37.5316 32.892 43.5043V216.539C32.892 222.512 37.7339 227.353 43.7067 227.353H216.741C222.714 227.353 227.556 222.512 227.556 216.539V43.5043Z" fill="white"/>
<path d="M62.3358 198.597L109.006 113.035C113.105 105.521 123.896 105.521 127.994 113.035L162.262 175.859L173.999 155.32C178.151 148.054 188.626 148.054 192.777 155.32L217.401 198.411C221.521 205.62 216.314 214.591 208.011 214.591H71.8299C63.6209 214.591 58.4049 205.804 62.3358 198.597Z" fill="#0F3987"/>
<path d="M205.016 95.6293C205.016 107.575 195.333 117.259 183.387 117.259C171.441 117.259 161.758 107.575 161.758 95.6293C161.758 83.6838 171.441 74 183.387 74C195.333 74 205.016 83.6838 205.016 95.6293Z" fill="#F3CC70"/>
</svg>
