<svg width="500" height="500" viewBox="0 0 500 500" fill="none" xmlns="http://www.w3.org/2000/svg">
<path d="M443.92 330.2H263.17C261.617 330.198 260.128 329.579 259.029 328.481C257.931 327.383 257.313 325.894 257.31 324.34V61.0602C257.313 59.5068 257.931 58.0179 259.029 56.9195C260.128 55.8211 261.617 55.2028 263.17 55.2002H443.92C445.473 55.2028 446.962 55.8211 448.061 56.9195C449.159 58.0179 449.777 59.5068 449.78 61.0602V324.34C449.777 325.894 449.159 327.383 448.061 328.481C446.962 329.579 445.473 330.198 443.92 330.2ZM263.17 55.4502C261.683 55.4528 260.258 56.0447 259.206 57.0962C258.155 58.1478 257.563 59.5731 257.56 61.0602V324.34C257.563 325.827 258.155 327.253 259.206 328.304C260.258 329.356 261.683 329.948 263.17 329.95H443.92C445.408 329.95 446.835 329.359 447.887 328.307C448.939 327.255 449.53 325.828 449.53 324.34V61.0602C449.53 59.5723 448.939 58.1454 447.887 57.0933C446.835 56.0412 445.408 55.4502 443.92 55.4502H263.17ZM235.49 330.2H54.75C53.1949 330.2 51.7034 329.583 50.6028 328.484C49.5023 327.386 48.8827 325.895 48.88 324.34V61.0602C48.8827 59.5051 49.5023 58.0146 50.6028 56.9159C51.7034 55.8173 53.1949 55.2002 54.75 55.2002H235.49C237.044 55.2002 238.535 55.8176 239.634 56.9165C240.733 58.0155 241.35 59.506 241.35 61.0602V324.34C241.35 325.894 240.733 327.385 239.634 328.484C238.535 329.583 237.044 330.2 235.49 330.2ZM54.75 55.4502C53.2612 55.4502 51.8333 56.0409 50.7796 57.0927C49.7259 58.1445 49.1327 59.5714 49.13 61.0602V324.34C49.1247 325.082 49.2662 325.817 49.5463 326.503C49.8263 327.19 50.2395 327.814 50.7619 328.34C51.2842 328.866 51.9056 329.284 52.59 329.569C53.2745 329.854 54.0086 330 54.75 330H235.49C236.227 330 236.956 329.855 237.637 329.573C238.317 329.291 238.936 328.878 239.457 328.357C239.978 327.836 240.391 327.218 240.673 326.537C240.955 325.856 241.1 325.127 241.1 324.39V61.0602C241.1 60.3235 240.955 59.594 240.673 58.9133C240.391 58.2327 239.978 57.6143 239.457 57.0933C238.936 56.5724 238.317 56.1592 237.637 55.8772C236.956 55.5953 236.227 55.4502 235.49 55.4502H54.75ZM500 391.27H0V391.52H500V391.27ZM51.67 405.78H67.73V405.53H51.67V405.78ZM170.35 403.07H223.88V402.82H170.35V403.07ZM68.73 415.07H105V414.82H68.73V415.07ZM378.35 402.94H421.54V402.69H378.35V402.94ZM430.45 402.94H436.78V402.69H430.45V402.94ZM316.21 409.17H370.1V408.92H316.21V409.17Z" fill="#E0E0E0"/>
<path d="M124.49 104.37H75.91V166.7H124.49V104.37Z" fill="#E6E6E6"/>
<path d="M122.11 104.37H65.04V166.7H122.11V104.37Z" fill="#F0F0F0"/>
<path d="M116.6 109.899H70.3V161.159H116.6V109.899Z" fill="white"/>
<path d="M102.22 126.28H85.51V144.78H102.22V126.28Z" fill="#F0F0F0"/>
<path d="M219.6 405.42C219.821 403.841 219.821 402.239 219.6 400.66C219.49 399.72 219.38 398.81 219.29 397.91C216.72 398.5 214.46 398.01 213.64 396.47C212.52 394.36 214.52 391.1 218.12 389.18L218.64 388.92C218.15 374.32 220.77 367.3 220.77 367.3C214.48 367.51 206.47 370.56 199.24 375.1C199.532 375.817 199.723 376.571 199.81 377.34C200.14 380.23 199.03 382.73 197.34 382.93C195.82 383.1 194.34 381.35 193.83 378.93C187.68 383.73 182.75 389.49 180.94 395.15C178.475 394.292 175.923 393.712 173.33 393.42C173.9 395.06 173.65 396.63 172.69 397.08C171.73 397.53 170.05 396.48 169.2 394.64C168.975 394.154 168.82 393.639 168.74 393.11C162.8 393.02 156.94 394.11 153.12 396.24C153.12 396.24 157.21 399.46 162.18 408.32H162.58C165.42 408.16 167.79 409.38 167.88 411.04C167.95 412.25 166.78 413.36 165.04 413.93C165.31 414.5 165.57 415.08 165.84 415.69C170.75 426.69 181.33 417.81 180.72 410.1C180.72 410.1 185.72 408.78 188.23 406.1C191.245 406.119 194.247 405.715 197.15 404.9C198.248 406.994 199.863 408.773 201.84 410.07C201.059 410.646 200.354 411.318 199.74 412.07C194.31 418.77 206.48 421.07 206.48 421.07C206.39 427.84 216.14 434.99 219.79 425.07C219.99 424.53 220.2 424.01 220.4 423.49C218.85 423.09 217.76 422.19 217.75 421.13C217.75 419.67 219.75 418.48 222.22 418.45H222.57C226.41 410.45 229.79 407.37 229.79 407.37C226.566 406.019 223.095 405.355 219.6 405.42Z" fill="#EBEBEB"/>
<path d="M218.86 412.44C211.37 417.23 196.28 428.14 194.19 429.65C194.36 431.76 194.61 433.87 194.99 435.96L194.25 436.1C193.87 434 193.62 431.88 193.45 429.76C193.419 429.724 193.396 429.684 193.38 429.64C191.06 422.85 183.24 408.22 170.21 401.45C170.166 401.429 170.126 401.399 170.094 401.362C170.061 401.324 170.037 401.281 170.022 401.234C170.007 401.187 170.002 401.138 170.006 401.089C170.011 401.04 170.026 400.993 170.05 400.95C170.072 400.906 170.103 400.868 170.14 400.836C170.177 400.804 170.22 400.781 170.267 400.766C170.313 400.751 170.362 400.745 170.411 400.749C170.459 400.754 170.507 400.767 170.55 400.79C182.62 407.05 190.28 419.93 193.32 427.38C192.699 411.608 197.684 396.126 207.39 383.68L207.98 384.15C198.077 396.837 193.152 412.705 194.13 428.77C197.23 426.52 211.3 416.39 218.45 411.77C218.533 411.732 218.626 411.725 218.714 411.75C218.801 411.776 218.877 411.832 218.926 411.908C218.976 411.984 218.997 412.076 218.985 412.166C218.972 412.256 218.928 412.339 218.86 412.4V412.44Z" fill="#E0E0E0"/>
<path d="M211.91 441.84L206.68 466.21H182.93L177.07 441.84H173.48V434.27H214.71V441.84H211.91ZM179.71 432.72C179.71 432.653 179.684 432.59 179.637 432.543C179.59 432.496 179.526 432.47 179.46 432.47H175.79C175.724 432.47 175.66 432.496 175.613 432.543C175.566 432.59 175.54 432.653 175.54 432.72C175.54 432.786 175.566 432.85 175.613 432.897C175.66 432.943 175.724 432.97 175.79 432.97H179.46C179.526 432.97 179.59 432.943 179.637 432.897C179.684 432.85 179.71 432.786 179.71 432.72ZM191.45 432.72C191.45 432.653 191.424 432.59 191.377 432.543C191.33 432.496 191.266 432.47 191.2 432.47H181.2C181.134 432.47 181.07 432.496 181.023 432.543C180.976 432.59 180.95 432.653 180.95 432.72C180.95 432.786 180.976 432.85 181.023 432.897C181.07 432.943 181.134 432.97 181.2 432.97H191.2C191.266 432.97 191.33 432.943 191.377 432.897C191.424 432.85 191.45 432.786 191.45 432.72Z" fill="#E0E0E0"/>
<path d="M161.45 273.67H128.95V287.17H161.45V273.67Z" fill="#E0E0E0"/>
<path d="M179.51 260.28H147.01V273.78H179.51V260.28Z" fill="#E6E6E6"/>
<path d="M180.59 286.91H148.09V300.41H180.59V286.91Z" fill="#F5F5F5"/>
<path d="M297.2 363.99H264.7V377.49H297.2V363.99Z" fill="#E6E6E6"/>
<path d="M313.45 377.49H280.95V390.99H313.45V377.49Z" fill="#F5F5F5"/>
<path d="M462.56 240.17H430.06V253.67H462.56V240.17Z" fill="#E6E6E6"/>
<path d="M478.81 253.67H446.31V267.17H478.81V253.67Z" fill="#F5F5F5"/>
<path d="M297.2 47.8799H264.7V61.3799H297.2V47.8799Z" fill="#E6E6E6"/>
<path d="M313.45 61.3799H280.95V74.8799H313.45V61.3799Z" fill="#F5F5F5"/>
<path d="M458.88 468.41C458.88 471.79 365.36 474.54 250 474.54C134.64 474.54 41.12 471.79 41.12 468.41C41.12 465.03 134.64 462.27 250 462.27C365.36 462.27 458.88 465 458.88 468.41Z" fill="#F5F5F5"/>
<path d="M277.24 356.86H166.7C164.313 356.86 162.024 355.911 160.336 354.224C158.648 352.536 157.7 350.247 157.7 347.86V237.31C157.7 234.923 158.648 232.633 160.336 230.946C162.024 229.258 164.313 228.31 166.7 228.31H277.24C279.627 228.31 281.916 229.258 283.604 230.946C285.292 232.633 286.24 234.923 286.24 237.31V347.85C286.241 349.032 286.009 350.204 285.558 351.297C285.106 352.39 284.443 353.383 283.607 354.22C282.772 355.057 281.779 355.721 280.686 356.174C279.594 356.626 278.423 356.86 277.24 356.86ZM179.97 361.86H230.34C230.539 361.86 230.73 361.781 230.87 361.64C231.011 361.499 231.09 361.308 231.09 361.11C231.09 360.911 231.011 360.72 230.87 360.579C230.73 360.439 230.539 360.36 230.34 360.36H180C179.801 360.36 179.61 360.439 179.47 360.579C179.329 360.72 179.25 360.911 179.25 361.11C179.25 361.308 179.329 361.499 179.47 361.64C179.61 361.781 179.801 361.86 180 361.86H179.97ZM233.78 361.86H237.64C237.839 361.86 238.03 361.781 238.17 361.64C238.311 361.499 238.39 361.308 238.39 361.11C238.39 360.911 238.311 360.72 238.17 360.579C238.03 360.439 237.839 360.36 237.64 360.36H233.78C233.581 360.36 233.39 360.439 233.25 360.579C233.109 360.72 233.03 360.911 233.03 361.11C233.033 361.308 233.112 361.497 233.252 361.637C233.393 361.777 233.582 361.857 233.78 361.86Z" fill="#12743B"/>
<path d="M247.44 306.93V308.93H239.24C239.17 305.37 239.14 301.71 239.24 300.87H254.73V292.61H230.34V294.82H230.25H222C221.92 291.08 221.89 287.22 222 286.64C222.005 286.607 222.005 286.573 222 286.54H237.67V278.29H213.24V280.51C213.143 280.476 213.042 280.455 212.94 280.45H204.63C204.55 276.7 204.53 272.84 204.63 272.26C204.63 272.26 204.63 272.26 204.63 272.19H220.51V263.94H196.14V266.28H187.84C187.76 262.53 187.73 258.67 187.84 258.1C187.85 258.017 187.85 257.933 187.84 257.85H203.42V249.59H179.05V257.85H185.85C185.7 259.13 185.77 263.6 185.85 267.3C185.85 267.565 185.955 267.819 186.143 268.007C186.33 268.194 186.585 268.3 186.85 268.3H196.13V272.21H202.62C202.49 273.7 202.56 277.95 202.62 281.49C202.62 281.755 202.725 282.009 202.913 282.197C203.1 282.384 203.355 282.49 203.62 282.49H212.91C213.013 282.486 213.115 282.462 213.21 282.42V286.58H220C219.87 288.03 219.93 292.32 220 295.89C220 296.155 220.105 296.409 220.293 296.597C220.48 296.784 220.735 296.89 221 296.89H230.37V300.97H237.26C237.15 302.59 237.26 306.65 237.26 310.06C237.26 310.325 237.365 310.579 237.553 310.767C237.74 310.955 237.995 311.06 238.26 311.06H247.44V315.34H271.8V307.09L247.44 306.93Z" fill="white"/>
<path d="M418.84 227.27H304.41C300.511 227.27 297.35 230.43 297.35 234.33V348.76C297.35 352.659 300.511 355.82 304.41 355.82H418.84C422.739 355.82 425.9 352.659 425.9 348.76V234.33C425.9 230.43 422.739 227.27 418.84 227.27Z" fill="#12743B"/>
<path opacity="0.3" d="M418.915 227H304.085C300.172 227 297 230.172 297 234.085V348.915C297 352.828 300.172 356 304.085 356H418.915C422.828 356 426 352.828 426 348.915V234.085C426 230.172 422.828 227 418.915 227Z" fill="black"/>
<path d="M336 263.7H326.19V253.89H336V263.7ZM350.32 253.89H340.51V263.7H350.32V253.89ZM364.65 253.89H354.84V263.7H364.65V253.89ZM336 267.5H326.19V277.31H336V267.5ZM350.32 267.5H340.51V277.31H350.32V267.5ZM364.65 267.5H354.84V277.31H364.65V267.5ZM336 281.1H326.19V290.92H336V281.1ZM350.32 281.1H340.51V290.92H350.32V281.1ZM336 295.76H326.19V305.57H336V295.76ZM379 253.89H369.2V263.7H379V253.89ZM393.33 253.89H383.52V263.7H393.33V253.89Z" fill="white"/>
<path d="M391.12 313.359L387.31 310.139C387.107 309.967 386.844 309.882 386.579 309.904C386.313 309.925 386.067 310.051 385.895 310.254C385.723 310.457 385.638 310.72 385.659 310.986C385.681 311.251 385.807 311.497 386.01 311.669L387.73 313.119H326.23C325.965 313.119 325.71 313.225 325.523 313.412C325.335 313.6 325.23 313.854 325.23 314.119C325.23 314.384 325.335 314.639 325.523 314.826C325.71 315.014 325.965 315.119 326.23 315.119H388.07L386.19 316.999C386.05 317.139 385.954 317.316 385.914 317.51C385.875 317.704 385.894 317.905 385.969 318.088C386.044 318.271 386.171 318.428 386.335 318.538C386.499 318.649 386.692 318.708 386.89 318.709C387.022 318.709 387.153 318.682 387.275 318.63C387.397 318.579 387.507 318.504 387.6 318.409L391.18 314.819C391.278 314.722 391.354 314.605 391.405 314.476C391.455 314.347 391.478 314.209 391.472 314.071C391.467 313.933 391.432 313.797 391.372 313.673C391.311 313.549 391.225 313.439 391.12 313.349V313.359Z" fill="white"/>
<path d="M417.42 217.51H305.85C303.597 217.51 301.437 216.616 299.843 215.024C298.249 213.432 297.353 211.273 297.35 209.02V97.45C297.353 95.1974 298.249 93.0379 299.843 91.446C301.437 89.8541 303.597 88.96 305.85 88.96H417.42C419.672 88.96 421.831 89.8544 423.423 91.4466C425.016 93.0388 425.91 95.1983 425.91 97.45V209C425.913 210.117 425.695 211.223 425.27 212.255C424.844 213.287 424.219 214.226 423.431 215.016C422.642 215.807 421.705 216.434 420.674 216.862C419.642 217.29 418.537 217.51 417.42 217.51ZM431.07 142.14V192.27C431.07 192.469 431.149 192.66 431.29 192.8C431.43 192.941 431.621 193.02 431.82 193.02C432.019 193.02 432.21 192.941 432.35 192.8C432.491 192.66 432.57 192.469 432.57 192.27V142.14C432.57 141.941 432.491 141.75 432.35 141.61C432.21 141.469 432.019 141.39 431.82 141.39C431.621 141.39 431.43 141.469 431.29 141.61C431.149 141.75 431.07 141.941 431.07 142.14ZM432.32 197.7V202.7C432.32 202.899 432.399 203.09 432.54 203.23C432.68 203.371 432.871 203.45 433.07 203.45C433.269 203.45 433.46 203.371 433.6 203.23C433.741 203.09 433.82 202.899 433.82 202.7V197.7C433.82 197.501 433.741 197.31 433.6 197.17C433.46 197.029 433.269 196.95 433.07 196.95C432.871 196.95 432.68 197.029 432.54 197.17C432.399 197.31 432.32 197.501 432.32 197.7Z" fill="#12743B"/>
<path d="M357.53 179.2H324.36C324.095 179.2 323.841 179.095 323.653 178.907C323.465 178.72 323.36 178.466 323.36 178.2C323.36 177.935 323.465 177.681 323.653 177.493C323.841 177.306 324.095 177.2 324.36 177.2H357.53C363.146 177.201 368.592 175.268 372.95 171.726C377.309 168.184 380.316 163.25 381.465 157.752C382.614 152.255 381.835 146.529 379.26 141.538C376.684 136.547 372.469 132.595 367.323 130.346C362.177 128.097 356.413 127.689 351.001 129.189C345.588 130.689 340.858 134.007 337.604 138.585C334.35 143.162 332.771 148.72 333.133 154.325C333.494 159.93 335.775 165.239 339.59 169.36L339.12 167.52C339.054 167.263 339.092 166.99 339.227 166.761C339.362 166.532 339.583 166.367 339.84 166.3C340.097 166.234 340.37 166.273 340.599 166.408C340.828 166.543 340.994 166.763 341.06 167.02L342.29 171.86C342.324 171.994 342.33 172.133 342.308 172.269C342.285 172.405 342.235 172.535 342.16 172.65C342.085 172.766 341.986 172.865 341.871 172.94C341.756 173.016 341.626 173.067 341.49 173.09L336.49 173.94H336.32C336.055 173.962 335.792 173.877 335.59 173.704C335.387 173.531 335.261 173.286 335.24 173.02C335.219 172.755 335.304 172.492 335.476 172.29C335.649 172.087 335.895 171.962 336.16 171.94L338.89 171.47C334.112 166.734 331.32 160.354 331.083 153.631C330.845 146.908 333.181 140.347 337.613 135.286C342.046 130.225 348.241 127.045 354.937 126.393C361.633 125.742 368.325 127.668 373.65 131.78C372.806 129.162 372.872 126.334 373.839 123.758C374.805 121.182 376.614 119.008 378.973 117.591C381.331 116.174 384.099 115.596 386.828 115.952C389.556 116.307 392.084 117.576 394 119.55V116.82C394 116.555 394.105 116.301 394.293 116.113C394.481 115.926 394.735 115.82 395 115.82C395.265 115.82 395.52 115.926 395.707 116.113C395.895 116.301 396 116.555 396 116.82L396.05 122.59C396.051 122.722 396.026 122.852 395.976 122.974C395.926 123.096 395.853 123.207 395.76 123.3C395.598 123.459 395.386 123.558 395.16 123.58H395.07H388.94C388.675 123.58 388.421 123.475 388.233 123.287C388.045 123.1 387.94 122.846 387.94 122.58C387.94 122.315 388.045 122.061 388.233 121.873C388.421 121.686 388.675 121.58 388.94 121.58H393.16C391.638 119.726 389.511 118.468 387.152 118.029C384.794 117.59 382.356 117.999 380.269 119.182C378.183 120.365 376.581 122.247 375.746 124.496C374.911 126.745 374.898 129.217 375.708 131.475C376.518 133.733 378.099 135.632 380.173 136.838C382.247 138.044 384.68 138.479 387.043 138.065C389.406 137.652 391.547 136.418 393.089 134.58C394.631 132.742 395.474 130.419 395.47 128.02C395.47 127.755 395.575 127.501 395.763 127.313C395.951 127.126 396.205 127.02 396.47 127.02C396.735 127.02 396.99 127.126 397.177 127.313C397.365 127.501 397.47 127.755 397.47 128.02C397.47 130.064 396.956 132.076 395.975 133.869C394.995 135.663 393.58 137.182 391.86 138.286C390.139 139.39 388.169 140.044 386.13 140.188C384.091 140.332 382.049 139.961 380.19 139.11C382.689 143.224 384.008 147.947 384 152.76C383.99 159.775 381.196 166.498 376.234 171.455C371.271 176.412 364.544 179.198 357.53 179.2ZM394.9 177.43C394.891 177.331 394.868 177.233 394.83 177.14C394.83 177.14 394.77 177.07 394.75 177.03C394.701 176.952 394.64 176.881 394.57 176.82L387.79 171.68C387.578 171.52 387.311 171.45 387.047 171.487C386.784 171.523 386.546 171.663 386.385 171.875C386.225 172.087 386.155 172.355 386.192 172.618C386.228 172.882 386.368 173.12 386.58 173.28L390.99 176.62H372.61C372.345 176.62 372.091 176.726 371.903 176.913C371.715 177.101 371.61 177.355 371.61 177.62C371.61 177.886 371.715 178.14 371.903 178.327C372.091 178.515 372.345 178.62 372.61 178.62H391.23L386.49 182.68C386.335 182.813 386.224 182.99 386.172 183.188C386.121 183.386 386.131 183.595 386.202 183.787C386.273 183.979 386.401 184.144 386.568 184.261C386.736 184.378 386.936 184.44 387.14 184.44C387.378 184.44 387.609 184.355 387.79 184.2L394.58 178.38C394.664 178.298 394.735 178.204 394.79 178.1C394.79 178.1 394.79 178.1 394.79 178.04C394.843 177.917 394.87 177.784 394.87 177.65C394.898 177.581 394.909 177.505 394.9 177.43Z" fill="white"/>
<path d="M279.484 89H165.516C161.365 89 158 92.3651 158 96.5162V210.484C158 214.635 161.365 218 165.516 218H279.484C283.635 218 287 214.635 287 210.484V96.5162C287 92.3651 283.635 89 279.484 89Z" fill="#15BA5A"/>
<path opacity="0.3" d="M418.484 89H304.516C300.365 89 297 92.3651 297 96.5162V210.484C297 214.635 300.365 218 304.516 218H418.484C422.635 218 426 214.635 426 210.484V96.5162C426 92.3651 422.635 89 418.484 89Z" fill="black"/>
<path opacity="0.3" d="M279.484 228H165.516C161.365 228 158 231.339 158 235.458V348.542C158 352.661 161.365 356 165.516 356H279.484C283.635 356 287 352.661 287 348.542V235.458C287 231.339 283.635 228 279.484 228Z" fill="black"/>
<path d="M194.82 150.19C194.832 142.376 197.683 134.832 202.844 128.963C208.004 123.095 215.121 119.302 222.87 118.29C223.135 118.257 223.403 118.331 223.614 118.495C223.825 118.659 223.962 118.9 223.995 119.165C224.028 119.431 223.955 119.698 223.79 119.909C223.626 120.12 223.385 120.257 223.12 120.29C216.961 121.094 211.2 123.779 206.625 127.979C202.049 132.18 198.882 137.69 197.556 143.758C196.23 149.826 196.809 156.155 199.216 161.882C201.622 167.608 205.738 172.451 211 175.75C211.185 175.865 211.328 176.037 211.406 176.24C211.485 176.443 211.495 176.667 211.435 176.876C211.375 177.085 211.248 177.269 211.074 177.4C210.9 177.531 210.688 177.601 210.47 177.6C210.281 177.602 210.097 177.546 209.94 177.44C205.306 174.563 201.485 170.55 198.839 165.78C196.192 161.011 194.809 155.645 194.82 150.19ZM227 182.35H190.31V185.53C190.31 185.796 190.205 186.05 190.017 186.238C189.83 186.425 189.575 186.53 189.31 186.53H180.38C180.115 186.53 179.86 186.425 179.673 186.238C179.485 186.05 179.38 185.796 179.38 185.53V176.6C179.38 176.335 179.485 176.081 179.673 175.893C179.86 175.706 180.115 175.6 180.38 175.6H189.31C189.575 175.6 189.83 175.706 190.017 175.893C190.205 176.081 190.31 176.335 190.31 176.6V180.35H227C234.778 180.365 242.261 177.373 247.885 172C253.51 166.627 256.839 159.288 257.179 151.517C257.518 143.746 254.841 136.144 249.708 130.301C244.574 124.457 237.38 120.824 229.63 120.16L231.33 121.83C231.52 122.017 231.627 122.272 231.629 122.538C231.631 122.805 231.527 123.061 231.34 123.25C231.153 123.44 230.898 123.548 230.632 123.55C230.366 123.551 230.11 123.447 229.92 123.26L226.52 119.89C226.361 119.797 226.231 119.661 226.144 119.498C226.057 119.335 226.017 119.151 226.029 118.967C226.04 118.782 226.102 118.605 226.208 118.454C226.315 118.302 226.46 118.184 226.63 118.11L230 115.41C230.102 115.323 230.22 115.258 230.348 115.217C230.476 115.177 230.61 115.163 230.743 115.175C230.877 115.188 231.006 115.227 231.124 115.291C231.242 115.354 231.346 115.441 231.43 115.546C231.514 115.65 231.575 115.77 231.612 115.899C231.648 116.028 231.658 116.163 231.642 116.296C231.625 116.429 231.581 116.557 231.514 116.673C231.447 116.789 231.357 116.89 231.25 116.97L229.77 118.16C238.048 118.846 245.74 122.71 251.233 128.941C256.726 135.172 259.593 143.288 259.235 151.587C258.877 159.886 255.321 167.724 249.312 173.459C243.302 179.194 235.307 182.38 227 182.35ZM188.33 184.53V181.79C188.266 181.652 188.232 181.502 188.23 181.35C188.231 181.201 188.265 181.055 188.33 180.92V177.6H181.4V184.53H188.33ZM270.77 180.53L267.57 177.36C267.383 177.174 267.129 177.07 266.865 177.07C266.601 177.07 266.347 177.174 266.16 177.36C266.066 177.453 265.992 177.564 265.941 177.686C265.89 177.808 265.864 177.938 265.864 178.07C265.864 178.202 265.89 178.333 265.941 178.455C265.992 178.577 266.066 178.687 266.16 178.78L267.64 180.24H244.78C244.515 180.24 244.26 180.346 244.073 180.533C243.885 180.721 243.78 180.975 243.78 181.24C243.78 181.506 243.885 181.76 244.073 181.948C244.26 182.135 244.515 182.24 244.78 182.24H267.89L266.34 184C266.171 184.201 266.087 184.461 266.108 184.723C266.128 184.985 266.251 185.228 266.45 185.4C266.631 185.555 266.862 185.64 267.1 185.64C267.244 185.64 267.387 185.609 267.518 185.549C267.65 185.488 267.766 185.4 267.86 185.29L270.81 181.81C270.962 181.621 271.04 181.382 271.029 181.139C271.018 180.896 270.919 180.666 270.75 180.49L270.77 180.53Z" fill="white"/>
<path d="M433.32 300.84C416 321.11 410.93 351.12 420.65 376C431.46 366.36 439.06 351.66 439.54 338.81C440.02 325.96 436.66 313.26 433.32 300.84Z" fill="#12743B"/>
<path d="M430.3 378.3C424.399 387.401 421.632 398.181 422.42 409C431.79 405.74 440.05 395.15 445 386.56C449.95 377.97 452.73 368.3 455.24 358.71C445.012 362.344 436.253 369.224 430.3 378.3Z" fill="#12743B"/>
<path d="M408.64 392.35C413.571 399.954 415.879 408.962 415.21 418C407.4 415.28 400.51 406.45 396.38 399.28C392.25 392.11 389.94 384 387.84 376C396.372 379.034 403.677 384.776 408.64 392.35Z" fill="#12743B"/>
<path d="M452.11 394.71C441.11 406.05 429.84 417.15 418.82 428.49C418.94 430.777 419.087 433.06 419.26 435.34C419.26 435.82 418.55 435.82 418.51 435.34C418.223 431.613 418.003 427.883 417.85 424.15C417.85 424.15 417.85 424.15 417.85 424.08C411.934 410.348 404.44 397.351 395.52 385.35C395.23 384.96 395.88 384.59 396.17 384.97C404.742 396.548 412.009 409.037 417.84 422.21C417.74 419.21 417.67 416.21 417.67 413.21C417.66 387.187 421.189 361.283 428.16 336.21C428.187 336.115 428.25 336.034 428.336 335.985C428.423 335.936 428.525 335.924 428.62 335.95C428.716 335.977 428.797 336.04 428.845 336.126C428.894 336.213 428.907 336.315 428.88 336.41C426.927 343.443 425.24 350.543 423.82 357.71C420.01 377.029 418.211 396.691 418.45 416.38C425.642 399.77 434.7 384.032 445.45 369.47C445.73 369.08 446.38 369.47 446.1 369.85C435.195 384.613 426.043 400.593 418.83 417.47C418.805 417.535 418.763 417.591 418.708 417.633C418.654 417.675 418.589 417.702 418.52 417.71C418.567 420.95 418.677 424.197 418.85 427.45C429.72 416.28 440.85 405.32 451.66 394.15C451.92 393.83 452.45 394.36 452.11 394.71Z" fill="#263238"/>
<path d="M452.51 389.479C442.943 398.717 434.24 408.809 426.51 419.629H428.26C431.914 419.46 435.491 418.515 438.753 416.858C442.015 415.201 444.887 412.871 447.18 410.02C449.473 407.169 451.134 403.864 452.053 400.323C452.972 396.781 453.127 393.085 452.51 389.479Z" fill="#12743B"/>
<path d="M407.22 367.49C411.32 374.21 415.187 381.067 418.82 388.06C419.04 388.49 419.69 388.11 419.47 387.68C415.824 380.693 411.954 373.837 407.86 367.11C407.61 366.7 406.96 367.11 407.22 367.49Z" fill="#263238"/>
<path d="M397.33 333.57C395.76 340.57 394.21 349.78 394.19 357.11C394.17 364.44 396.41 371.61 400.58 376.53C404.75 381.45 413.17 383.59 416.58 380.78L397.33 333.57Z" fill="#12743B"/>
<path d="M438.9 431.77H397.11V439.52H401.75L406.18 467.11H432.13L435.63 439.52H438.9V431.77Z" fill="#263238"/>
<path opacity="0.2" d="M401.78 439.66H435.61L435.19 442.99H402.31L401.78 439.66Z" fill="black"/>
<path d="M91.62 87.0699C91.6474 87.1296 91.6502 87.1977 91.6277 87.2595C91.6053 87.3212 91.5594 87.3717 91.5 87.3999C91.4639 87.4088 91.4262 87.4088 91.39 87.3999C91.3429 87.3981 91.2973 87.3831 91.2584 87.3566C91.2195 87.3301 91.1888 87.2931 91.17 87.2499C90.6419 86.0938 90.3592 84.8407 90.34 83.5699C90.3372 83.5367 90.3414 83.5033 90.3522 83.4719C90.363 83.4404 90.3803 83.4115 90.4028 83.3871C90.4254 83.3626 90.4528 83.3431 90.4833 83.3298C90.5138 83.3166 90.5468 83.3098 90.58 83.3099C90.6473 83.3098 90.7119 83.3358 90.7604 83.3825C90.8089 83.4291 90.8374 83.4927 90.84 83.5599C90.8528 84.7714 91.1185 85.9669 91.62 87.0699ZM99.62 58.7999C99.6636 58.752 99.6877 58.6896 99.6877 58.6249C99.6877 58.5601 99.6636 58.4977 99.62 58.4499C99.5802 58.3968 99.521 58.3618 99.4554 58.3524C99.3897 58.343 99.3231 58.3601 99.27 58.3999C96.0592 60.9438 93.5226 64.2377 91.8835 67.9919C90.2444 71.7462 89.553 75.8457 89.87 79.9299C89.8749 79.991 89.902 80.0481 89.9463 80.0905C89.9905 80.1329 90.0488 80.1576 90.11 80.1599C90.1425 80.1574 90.1742 80.1484 90.2031 80.1333C90.232 80.1182 90.2575 80.0974 90.278 80.0721C90.2986 80.0469 90.3139 80.0177 90.3228 79.9864C90.3317 79.955 90.3342 79.9222 90.33 79.8899C90.0256 75.8847 90.711 71.8661 92.3259 68.1883C93.9407 64.5105 96.4354 61.2863 99.59 58.7999H99.62ZM139.5 92.9399C136.722 97.1361 132.735 100.39 128.068 102.272C123.401 104.154 118.272 104.575 113.36 103.48L107.29 107.84L105.39 100.18C105.28 100.11 105.15 100.05 105.04 99.9699C100.938 97.2544 97.7337 93.3834 95.832 88.8466C93.9303 84.3097 93.4168 79.3108 94.3564 74.4821C95.2959 69.6534 97.6464 65.2118 101.111 61.719C104.575 58.2263 108.997 55.8393 113.818 54.8601C118.638 53.8808 123.641 54.3532 128.194 56.2175C132.746 58.0818 136.643 61.2543 139.392 65.3337C142.142 69.4132 143.619 74.2162 143.638 79.1355C143.657 84.0547 142.217 88.8692 139.5 92.9699V92.9399ZM131.5 74.9399L128 71.4399L116.33 82.8699L109.33 76.4399L106 80.0999L116.49 89.6799L131.5 74.9399Z" fill="#15BA5A"/>
<path d="M109.65 161.58C109.809 161.358 109.956 161.128 110.09 160.89C111.77 158.02 111.8 154.21 110.79 150.89V150.78C112.03 147.17 113.85 145.29 112.31 139.6C110.597 133.552 107.448 128.008 103.13 123.44C100.72 120.84 97.99 118.44 94.7 117.44C91.41 116.44 87.7 116.77 85.2 119.17C85.2 119.17 83.2 121.02 81.05 125.75C77.12 134.52 80.43 145.86 83.3 152.2C82.3634 152.208 81.4308 152.322 80.52 152.54C79.5185 152.786 78.5536 153.163 77.65 153.66C77.3059 153.834 76.972 154.028 76.65 154.24C76.0605 154.628 75.5082 155.07 75 155.56C74.3075 156.238 73.7027 157.001 73.2 157.83C70.8 161.71 69.71 166.7 71.89 170.7C77.89 166.5 76.47 172 81.5 172C90.23 172 98.6 173 98.6 173C98.6203 172.81 98.6203 172.619 98.6 172.43C100.528 172.842 102.522 172.842 104.45 172.43C105.715 172.17 106.937 171.732 108.08 171.13C109.56 170.34 114.52 165.37 109.65 161.58Z" fill="#263238"/>
<path d="M95.6399 123.68C85.4599 118.68 74.8999 126.31 75.1299 137.12C75.3599 147.58 75.2599 152.19 79.9199 157.8C79.9105 157.986 79.9105 158.173 79.9199 158.36C79.91 158.53 79.91 158.7 79.9199 158.87C80.9199 164.59 80.7699 168.34 78.0999 171.48C78.0999 171.48 73.9299 178.29 88.0299 183.36C90.3999 184.36 92.0299 184.94 93.7899 183.11C99.7899 176.94 99.6999 174.21 98.5999 173.58C96.7999 172.67 92.3699 168.82 92.2199 166.2C92.2133 165.733 92.2133 165.266 92.2199 164.8V163.73C94.9491 163.626 97.5713 162.641 99.6946 160.924C101.818 159.206 103.328 156.847 104 154.2C106.6 144.66 105.82 128.64 95.6399 123.68Z" fill="#B97964"/>
<path d="M96.64 125.13C95.77 122.05 92.42 119.41 86.3 118.07L86 118C80.16 116.78 73.9 114.9 71.41 121.34C64.89 138.14 55.29 135.83 57.41 140.98C57.733 141.636 58.2372 142.185 58.8629 142.562C59.4886 142.94 60.2095 143.13 60.94 143.11C61.3103 143.103 61.6762 143.028 62.02 142.89C61.59 143.28 61.09 143.68 60.63 144.11C58.13 146.48 55.7 149.28 54.71 152.67C54.4918 153.225 54.3765 153.814 54.37 154.41C54.3647 155.047 54.4849 155.679 54.7238 156.269C54.9627 156.86 55.3155 157.397 55.7622 157.851C56.2088 158.305 56.7405 158.667 57.327 158.916C57.9134 159.164 58.543 159.295 59.18 159.3C58.96 159.54 56.4 162.19 56 162.87C51.52 170.34 54.87 180.19 65.28 175.87C68.11 174.7 75.87 171.74 75.87 171.74C75.87 171.74 78.87 174.61 78.87 169.08L79.08 169.18C79.0745 169.147 79.0745 169.113 79.08 169.08C77.1925 164.822 76.4679 160.14 76.98 155.51C76.98 155.25 77.04 154.98 77.08 154.72C77.2 153.9 77.41 152.99 77.55 152.3C77.6771 151.659 77.8475 151.028 78.06 150.41C78.4315 149.226 78.886 148.07 79.42 146.95C79.74 146.3 80.07 145.66 80.42 145.05L80.7 144.62C82.2622 141.886 84.5361 139.626 87.28 138.08C94.53 134.36 98 129.3 96.64 125.13Z" fill="#263238"/>
<path d="M70.35 146.36C70.8295 147.406 71.5111 148.346 72.3555 149.127C73.1999 149.908 74.1904 150.514 75.27 150.91C78.08 151.91 79.95 147.38 79.21 144.43C78.8627 143.089 78.044 141.917 76.9037 141.129C75.7635 140.341 74.3778 139.99 73 140.14C70.24 140.47 69.1 143.7 70.35 146.36Z" fill="#B97964"/>
<path d="M80.07 122.121C78.93 125.661 75.7599 125.501 73.7699 128.641C71.7799 131.781 70.6299 136.101 72.8399 139.091C73.555 139.873 74.2228 140.698 74.8399 141.561C76.2999 144.151 74.64 147.341 74.58 150.311C74.58 153.071 74.38 156.311 76.58 157.791C77.4861 158.405 78.2314 159.228 78.7535 160.19C79.2755 161.152 79.5589 162.226 79.58 163.321C79.58 164.021 77.43 168.761 77.32 169.441C77.17 170.441 79.98 167.321 80.98 167.441C81.3382 167.493 81.7039 167.438 82.0312 167.283C82.3585 167.128 82.6329 166.88 82.82 166.571C82.88 166.461 82.93 166.351 82.98 166.241C83.8298 164.583 84.3043 162.759 84.37 160.898C84.4357 159.037 84.0908 157.184 83.36 155.471C82.5 153.471 81.56 151.601 80.71 149.641C79.7396 147.714 79.3703 145.54 79.65 143.401C80.58 138.601 92.01 127.761 82.9 118.961C82.781 118.84 82.6192 118.772 82.45 118.771C82.0746 118.812 81.7154 118.946 81.4048 119.161C81.0941 119.376 80.8416 119.664 80.67 120.001C80.3919 120.683 80.1907 121.394 80.07 122.121Z" fill="#263238"/>
<path d="M97 141.86C97.762 144.253 98.7672 146.562 100 148.75C100.068 148.862 100.109 148.988 100.12 149.118C100.131 149.248 100.112 149.379 100.063 149.501C100.015 149.622 99.9386 149.73 99.8408 149.817C99.743 149.904 99.6263 149.967 99.5 150C98.5301 150.203 97.523 150.134 96.59 149.8L97 141.86Z" fill="#A24E3F"/>
<path d="M95.9999 152.76C95.2291 153.709 94.5273 154.711 93.8999 155.76L93.2899 155.53C90.5599 154.43 89.6599 153.02 89.4799 151.78C89.4129 151.178 89.4882 150.568 89.6999 150C89.8084 149.673 89.9634 149.363 90.1599 149.08C91.2599 150.53 93.7299 151.75 95.0699 152.34C95.5899 152.63 95.9999 152.76 95.9999 152.76Z" fill="#263238"/>
<path d="M95 152.37L94.36 153.25C91.79 152.25 90.12 151.13 89.63 150.03C89.7385 149.703 89.8934 149.393 90.09 149.11C91.22 150.56 93.69 151.78 95 152.37Z" fill="white"/>
<path d="M93.2499 155.561C90.5199 154.461 89.6199 153.051 89.4399 151.811C90.4724 152.249 91.4201 152.865 92.2399 153.631C92.7716 154.151 93.1251 154.827 93.2499 155.561Z" fill="#DE5753"/>
<path d="M87.6699 137.49C87.614 137.534 87.5492 137.564 87.48 137.58C87.4109 137.596 87.3391 137.596 87.2699 137.58C87.1346 137.554 87.0136 137.48 86.9299 137.37C86.8422 137.258 86.8015 137.116 86.8164 136.974C86.8313 136.832 86.9007 136.702 87.0099 136.61C87.6506 136.095 88.4107 135.75 89.2199 135.607C90.0291 135.464 90.8614 135.527 91.6399 135.79C91.7719 135.846 91.8791 135.947 91.9417 136.076C92.0043 136.205 92.0178 136.352 91.9799 136.49C91.9588 136.555 91.9245 136.615 91.8793 136.666C91.8341 136.718 91.7789 136.759 91.717 136.788C91.6552 136.817 91.588 136.833 91.5197 136.835C91.4514 136.837 91.3834 136.825 91.3199 136.8C90.702 136.604 90.0449 136.564 89.4078 136.684C88.7706 136.805 88.1734 137.082 87.6699 137.49ZM103.99 136.57C103.381 136.094 102.66 135.784 101.897 135.668C101.133 135.552 100.352 135.636 99.6299 135.91C99.5164 135.977 99.4338 136.086 99.4001 136.213C99.3664 136.341 99.3843 136.476 99.4499 136.59C99.501 136.712 99.5972 136.809 99.7185 136.861C99.8397 136.913 99.9764 136.917 100.1 136.87C100.676 136.658 101.297 136.598 101.903 136.696C102.509 136.794 103.08 137.047 103.56 137.43C103.615 137.468 103.677 137.493 103.743 137.505C103.808 137.517 103.875 137.515 103.94 137.5C103.997 137.488 104.05 137.463 104.095 137.426C104.14 137.39 104.176 137.343 104.2 137.29C104.257 137.166 104.268 137.025 104.231 136.894C104.195 136.762 104.113 136.647 104 136.57H103.99Z" fill="#263238"/>
<path d="M90.1899 139.88C89.8615 140.069 89.5932 140.346 89.4162 140.681C89.2391 141.015 89.1607 141.393 89.1899 141.77C89.1899 142.92 89.6899 143.91 90.3999 143.99C91.1099 144.07 91.7299 143.19 91.7699 141.99C91.8065 141.384 91.6489 140.781 91.3199 140.27C91.8479 140.112 92.3219 139.811 92.6899 139.4L90.1499 139.78L90.1899 139.88ZM100.99 140.77C100.39 140.89 99.9199 141.66 99.8799 142.64C99.8399 143.62 100.38 144.72 101.09 144.79C101.8 144.86 102.41 144.02 102.45 142.91C102.484 142.331 102.33 141.755 102.01 141.27C102.596 141.144 103.126 140.832 103.52 140.38L100.98 140.76L100.99 140.77Z" fill="#263238"/>
<path d="M59.6899 446.421L60.8099 448.001L62.9999 447.001L64.3799 453.841L73.7399 466.921C73.7399 466.921 77.2999 467.491 74.4899 460.061C74.3615 459.696 74.2645 459.321 74.1999 458.941C73.3699 454.491 75.1999 445.941 75.1999 445.941L70.0599 438.771C69.577 438.793 69.096 438.846 68.6199 438.931C66.5199 439.331 62.2599 440.371 59.6899 446.421Z" fill="#12743B"/>
<path opacity="0.2" d="M59.6899 446.421L60.8099 448.001L62.9999 447.001L64.3799 453.841L73.7399 466.921C73.7399 466.921 77.2999 467.491 74.4899 460.061C74.3615 459.696 74.2645 459.321 74.1999 458.941C73.3699 454.491 75.1999 445.941 75.1999 445.941L70.0599 438.771C69.577 438.793 69.096 438.846 68.6199 438.931C66.5199 439.331 62.2599 440.371 59.6899 446.421Z" fill="black"/>
<path d="M68.6499 439C70.3799 439.19 68.8699 446.85 69.5599 451.14C70.1899 454.97 71.8399 458.59 74.2599 458.97C73.4299 454.52 76.4299 444.4 76.4299 444.4L72.2999 438.63C72.2999 438.63 69.5599 438.83 68.6499 439Z" fill="#A24E3F"/>
<path d="M74 466.45H75.9L76.43 464.08L82.76 467H98.76C98.76 467 101.3 464.42 93.68 462.37C93.3108 462.264 92.9525 462.123 92.61 461.95C88.54 460.03 82.76 453.55 82.76 453.55H74C73.7307 453.956 73.4901 454.38 73.28 454.82C72.31 456.72 70.66 460.8 74 466.45Z" fill="#12743B"/>
<path d="M73.27 454.77C74.43 453.47 79.7 459.19 83.56 461.13C87.01 462.86 90.89 463.63 92.56 461.87C88.54 460 82.1 451.16 82.1 451.16L75.04 451.38C75.04 451.38 73.68 453.94 73.27 454.77Z" fill="#B97964"/>
<path d="M130.91 337.21V337.09L124.33 297.2C122 279.26 114.16 248 114.16 248L110.8 235.44H79.29C79.2856 235.51 79.2856 235.58 79.29 235.65L68.52 235.44C68.52 235.44 54 245.33 55.91 281.2C56.71 296.11 61.83 333.54 61.35 339.28C55.73 383.28 66.84 451.91 66.84 451.91L83.37 451.1C83.29 449.75 83.24 448.16 83.22 446.37C83.4028 446.39 83.5872 446.39 83.77 446.37C86.13 439.87 89.91 430.52 94.55 419.81C98.96 409.66 104.12 398.31 109.55 386.99C113.71 378.41 121.29 368.99 125.55 360.99C129.487 353.707 131.342 345.479 130.91 337.21ZM88.55 377.49C87.65 379.97 86.8 382.49 85.98 384.95C87.65 359.85 89.45 337.76 89.45 337.76C89.87 332.16 91.25 320.76 92.96 307.56C96.09 318.44 99.96 330.61 104.64 344.14C98.24 353.69 92.91 365.49 88.55 377.49Z" fill="#263238"/>
<path opacity="0.2" d="M86 385C86.82 382.52 87.67 380 88.57 377.54C90.79 389.97 93.28 405.68 94.57 419.87C89.93 430.58 86.15 439.93 83.79 446.43C83.6072 446.45 83.4228 446.45 83.24 446.43C83.07 432.85 84.47 407.67 86 385ZM96.91 278.4C95.51 288.57 94.06 299.27 92.81 308.91C94.29 312.69 95.87 316.85 97.37 321.86C102.86 294.95 98.37 276.86 98.37 276.86C97.9 277.24 97.41 277.77 96.89 278.35L96.91 278.4ZM55.75 271.6V275.84L79.31 278.64L81.93 237.45L55.75 271.6Z" fill="black"/>
<path d="M113.46 193.13C112.94 185.22 103.37 174.03 103.37 174.03C102.84 173.97 99.31 173.92 98.77 173.86L97.09 173.73L92.55 167.49L90.19 171.49L83.07 166.23L79.23 168.04L81.11 173.56C78.68 173.71 76.11 173.91 73.46 174.13C72.46 174.22 71.46 174.31 70.52 174.43C69.58 174.55 60.94 174.75 60.94 174.75C60.94 174.75 57.42 182.13 59.49 188.67C65.88 208.79 69.59 227.94 70.49 238.39L109.88 237.68C110.36 227.59 115.56 217.14 115.61 209.97C115.87 199.45 113.74 197.55 113.46 193.13Z" fill="white"/>
<path d="M83.22 219.21C83.46 214.61 83.61 210.32 83.61 206.63C84.94 179.32 79.38 168.33 79.38 168.33L79.23 168.08C78.13 168.96 76.3 170.24 74.7 171.31L63.57 172.68C57.24 173.76 43.66 202.12 38.28 216.11C36.65 220.36 40.28 225.8 43.4 226.67C46.73 227.59 56.4 228.51 65.63 229.23L50.24 272.33L78 275.25C78 275.25 80.83 252 82.48 230.4L85.91 230.6L87.25 220.05L83.22 219.21ZM57.11 213.74L62 206.32C62.59 208.62 63.2 210.95 63.8 213.21C64 213.96 64.19 214.63 64.37 215.21L57.11 213.74Z" fill="#12743B"/>
<path d="M140.4 198.581C139.497 197.08 139.143 195.313 139.4 193.581C139.99 191.141 139.81 189.041 140.4 187.251C140.99 185.461 141.96 187.791 142.24 189.131C142.52 190.471 142.86 191.981 143.83 191.611C144.8 191.241 150.45 184.281 151.83 183.921C153.21 183.561 152.67 184.921 152.67 184.921C152.67 184.921 154.09 183.271 154.89 183.651C155.1 183.751 155.43 184.321 154.89 185.181C153.68 187.141 151 191.001 151 191.001C151.15 190.771 154.83 186.191 155.47 185.581C156.31 184.781 157.11 184.821 157.56 185.321C158.2 186.041 153.84 191.871 153.82 192.241C153.82 192.241 156.22 188.801 157.45 188.941C158.68 189.081 157.29 191.321 155.68 193.071C154.21 194.671 151.75 198.211 150.09 199.691C148.09 201.521 146.27 202.291 143.92 201.261C142.536 200.684 141.324 199.761 140.4 198.581Z" fill="#B97964"/>
<path opacity="0.3" d="M149.29 189.59C149.244 189.603 149.196 189.603 149.15 189.59C149.123 189.571 149.1 189.547 149.082 189.519C149.065 189.491 149.053 189.46 149.047 189.428C149.041 189.395 149.042 189.362 149.05 189.33C149.057 189.297 149.071 189.267 149.09 189.24C150.09 187.79 151.09 186.37 152.22 185.02C152.242 184.996 152.27 184.977 152.3 184.964C152.33 184.951 152.362 184.944 152.395 184.944C152.428 184.944 152.46 184.951 152.49 184.964C152.52 184.977 152.548 184.996 152.57 185.02C152.616 185.067 152.641 185.13 152.641 185.195C152.641 185.261 152.616 185.323 152.57 185.37C151.48 186.7 150.43 188.11 149.46 189.55C149.41 189.583 149.35 189.597 149.29 189.59Z" fill="black"/>
<path opacity="0.3" d="M152.92 193.9C152.879 193.902 152.839 193.893 152.803 193.876C152.766 193.859 152.734 193.833 152.71 193.8C151.42 191.989 149.625 190.598 147.55 189.8C147.488 189.776 147.437 189.729 147.41 189.668C147.383 189.607 147.381 189.537 147.405 189.475C147.429 189.413 147.476 189.363 147.537 189.335C147.598 189.308 147.668 189.306 147.73 189.33C149.893 190.162 151.767 191.608 153.12 193.49C153.139 193.517 153.153 193.547 153.16 193.58C153.168 193.612 153.168 193.645 153.163 193.678C153.157 193.71 153.145 193.741 153.128 193.769C153.11 193.797 153.087 193.821 153.06 193.84C153.021 193.875 152.972 193.897 152.92 193.9Z" fill="black"/>
<path opacity="0.3" d="M144.29 198.001C144.233 197.999 144.177 197.982 144.13 197.951C144.084 197.904 144.058 197.841 144.058 197.776C144.058 197.71 144.084 197.647 144.13 197.601C144.654 196.906 144.919 196.05 144.879 195.181C144.839 194.312 144.496 193.484 143.91 192.841C143.883 192.817 143.861 192.789 143.846 192.756C143.832 192.724 143.824 192.689 143.823 192.653C143.823 192.618 143.83 192.583 143.845 192.55C143.859 192.518 143.88 192.488 143.907 192.465C143.934 192.441 143.965 192.423 143.999 192.413C144.033 192.402 144.068 192.399 144.104 192.403C144.139 192.408 144.173 192.419 144.203 192.438C144.234 192.456 144.26 192.481 144.28 192.511C144.939 193.241 145.324 194.178 145.37 195.161C145.416 196.144 145.119 197.112 144.53 197.901C144.503 197.938 144.466 197.967 144.424 197.984C144.382 198.002 144.335 198.007 144.29 198.001Z" fill="black"/>
<path d="M114.34 232.39C116.25 234.73 118.56 236.19 121.26 235.47C124.17 234.69 148.04 203.17 148.04 203.17L137.82 195L121.63 210C121.63 210 119.75 194.93 116.47 185.12C115.567 182.411 114.135 179.908 112.257 177.757C110.379 175.607 108.092 173.85 105.53 172.59L104.95 172.3L100.36 171.99L99.94 171.71C97.74 170.22 93.42 167.96 92.85 168.14L94 169.5L93.85 169.44C93.85 169.44 94.6 170.34 95.78 171.86C100.95 178.86 111.3 193.71 111.37 200.86C111.46 210.04 111.55 212.07 111.55 212.07C110.84 221.29 109.23 231.71 109.55 235.51C110.41 245.51 114.84 257.82 120.55 275.81L124.35 275.27L113.89 235.46C113.89 235.46 114.05 234.29 114.34 232.39Z" fill="#12743B"/>
<path opacity="0.3" d="M111.32 200.84C111.22 191.33 92.85 168.08 92.85 168.08C93.42 167.9 97.74 170.16 99.94 171.65C103.16 173.83 106.63 175.96 106.63 175.96L105.69 182.44L112.88 187.76C112.88 187.76 112.98 192.49 113.41 198.83C113.523 203.313 112.878 207.783 111.5 212.05C111.5 212.05 111.41 210 111.32 200.84ZM116.81 235V209L114.34 232.43C115.076 233.367 115.904 234.228 116.81 235Z" fill="black"/>
<path opacity="0.2" d="M66.7499 199.19C67.1999 202.65 67.2899 207 65.8599 210.67C65.4851 211.711 64.7834 212.602 63.8599 213.21C63.2599 210.95 62.6499 208.62 62.0599 206.32L66.7499 199.19ZM79.2299 168.08C76.9799 169.9 71.6199 173.34 71.6199 173.34L76.6199 183.34L72.8499 189.46L83.2699 211.86C85.6399 180.7 79.3699 168.32 79.3699 168.32L79.2299 168.08ZM57.1099 213.74C57.1099 213.74 52.6399 213.04 49.8099 215.41C49.8099 215.41 52.8099 210.52 58.3499 211.87L57.1099 213.74ZM82.4799 230.4L65.6099 229.25L64.6099 232.04L82.1699 234.27L82.4799 230.4Z" fill="black"/>
<path opacity="0.3" d="M97.72 174.59L95.69 179.6L90.67 174.59L87.25 180.47L82.14 177.97L87.58 182.28L90.73 175.84L96.5 181.27L97.72 174.59Z" fill="black"/>
<path d="M102.29 221.38L99.09 218.86C98.7305 218.578 98.309 218.386 97.8604 218.299C97.4117 218.212 96.9489 218.233 96.51 218.36L87.12 221.07L85.91 230.6H85.38C87.04 234.99 95.71 231.2 95.71 231.2L97.86 232.57C99.6 233.67 103.74 232.45 104.09 230.41L104.34 225.18C104.52 224.09 103.13 222.05 102.29 221.38Z" fill="#B97964"/>
</svg>
