<svg width="89" height="89" viewBox="0 0 89 89" fill="none" xmlns="http://www.w3.org/2000/svg">
<g style="mix-blend-mode:multiply">
<rect x="5" y="5" width="78.312" height="78.312" rx="39.156" fill="#EBEFFF"/>
<rect x="5" y="5" width="78.312" height="78.312" rx="39.156" stroke="#F5F6FF" stroke-width="9.789"/>
<path d="M45.2581 29.75L31.8983 45.7818C31.3751 46.4096 31.1135 46.7236 31.1095 46.9887C31.106 47.2192 31.2087 47.4385 31.388 47.5833C31.5942 47.75 32.0029 47.75 32.8201 47.75H43.7581L42.2581 59.75L55.6179 43.7182C56.1411 43.0904 56.4027 42.7764 56.4067 42.5113C56.4102 42.2808 56.3075 42.0615 56.1282 41.9167C55.922 41.75 55.5133 41.75 54.696 41.75H43.7581L45.2581 29.75Z" stroke="#4338CA" stroke-width="3" stroke-linecap="round" stroke-linejoin="round"/>
</g>
</svg>

