<svg width="193" height="193" viewBox="0 0 193 193" fill="none" xmlns="http://www.w3.org/2000/svg">
<g clip-path="url(#clip0_2441_395)">
<path d="M96.1564 45.667C81.1093 45.6689 66.1987 52.136 67.766 65.0587L71.6074 93.1476C72.2835 98.0916 75.6218 105.993 80.6119 105.993H80.9672L85.0526 155.03C85.2293 157.148 86.7659 158.871 88.8941 158.871H104.26C106.388 158.871 107.925 157.148 108.101 155.03L112.187 105.993H112.542C117.53 105.993 120.87 98.0896 121.547 93.1476L125.388 65.0587C126.393 52.1245 111.205 45.6632 96.1564 45.667Z" fill="white"/>
<path d="M96.6245 98.1357L96.5273 98.3907C96.5597 98.3138 96.582 98.2349 96.6143 98.158L96.6245 98.1357Z" fill="black"/>
<path d="M63.5662 135.729C36.4339 139.563 17.457 148.735 17.457 162.236C17.457 180.421 49.1645 195.163 94.2865 195.163C139.408 195.163 171.116 180.421 171.116 162.236C171.116 148.735 152.141 139.563 125.011 135.729L121.252 142.129C141.7 144.966 155.75 150.928 155.75 157.847C155.75 167.546 128.232 175.408 94.2865 175.408C60.3413 175.408 32.8229 167.546 32.8229 157.847C32.821 150.951 46.779 144.995 67.2905 142.147C66.0516 140.007 64.807 137.871 63.5662 135.729Z" fill="white"/>
<path d="M96.5818 40.689C107.72 40.689 116.75 31.6596 116.75 20.5212C116.75 9.38292 107.72 0.353516 96.5818 0.353516C85.4435 0.353516 76.4141 9.38292 76.4141 20.5212C76.4141 31.6596 85.4435 40.689 96.5818 40.689Z" fill="white"/>
</g>
<defs>
<clipPath id="clip0_2441_395">
<rect width="192.074" height="192.074" fill="white" transform="translate(0.53125 0.353516)"/>
</clipPath>
</defs>
</svg>
