<svg width="500" height="500" viewBox="0 0 500 500" fill="none" xmlns="http://www.w3.org/2000/svg">
<path d="M500 382.4H0V382.65H500V382.4Z" fill="#FAFAFA"/>
<path d="M423.22 393.28H398.39V393.53H423.22V393.28Z" fill="#E0E0E0"/>
<path d="M438.95 393.15H430.56V393.4H438.95V393.15Z" fill="#E0E0E0"/>
<path d="M332.03 394.83H280.04V395.08H332.03V394.83Z" fill="#E0E0E0"/>
<path d="M267.77 397.54H260.02V397.79H267.77V397.54Z" fill="#E0E0E0"/>
<path d="M111.95 389.63H98.59V389.88H111.95V389.63Z" fill="#E0E0E0"/>
<path d="M185.26 389.63H117.5V389.88H185.26V389.63Z" fill="#E0E0E0"/>
<path d="M127.5 395.67H80.36V395.92H127.5V395.67Z" fill="#E0E0E0"/>
<path d="M237 337.8H43.91C42.3974 337.797 40.9476 337.195 39.8789 336.124C38.8102 335.054 38.21 333.603 38.21 332.09V60.66C38.2232 59.156 38.8292 57.718 39.8965 56.6582C40.9637 55.5985 42.406 55.0026 43.91 55H237C238.514 55 239.967 55.6016 241.038 56.6724C242.108 57.7433 242.71 59.1956 242.71 60.71V332.09C242.71 333.604 242.108 335.057 241.038 336.128C239.967 337.198 238.514 337.8 237 337.8ZM43.91 55.2C42.4637 55.2026 41.0775 55.7791 40.0557 56.8027C39.0339 57.8264 38.46 59.2136 38.46 60.66V332.09C38.46 333.536 39.0339 334.924 40.0557 335.947C41.0775 336.971 42.4637 337.547 43.91 337.55H237C238.447 337.547 239.835 336.971 240.858 335.948C241.881 334.924 242.457 333.537 242.46 332.09V60.66C242.457 59.2127 241.881 57.8255 240.858 56.8021C239.835 55.7787 238.447 55.2026 237 55.2H43.91Z" fill="#E0E0E0"/>
<path d="M453.31 337.8H260.21C258.696 337.797 257.246 337.195 256.175 336.125C255.105 335.054 254.503 333.604 254.5 332.09V60.66C254.516 59.1551 255.124 57.7171 256.193 56.6576C257.262 55.5981 258.705 55.0025 260.21 55H453.31C454.812 55.0052 456.252 55.6022 457.317 56.6617C458.382 57.7212 458.987 59.1578 459 60.66V332.09C459 333.601 458.401 335.05 457.335 336.121C456.268 337.191 454.821 337.795 453.31 337.8ZM260.21 55.2C258.763 55.2026 257.375 55.7787 256.352 56.8021C255.329 57.8255 254.753 59.2127 254.75 60.66V332.09C254.753 333.537 255.329 334.924 256.352 335.948C257.375 336.971 258.763 337.547 260.21 337.55H453.31C454.757 337.547 456.145 336.971 457.168 335.948C458.191 334.924 458.767 333.537 458.77 332.09V60.66C458.767 59.2127 458.191 57.8255 457.168 56.8021C456.145 55.7787 454.757 55.2026 453.31 55.2H260.21Z" fill="#E0E0E0"/>
<path d="M341.75 382.4H377.08V318.28H341.75V382.4Z" fill="#E0E0E0"/>
<path d="M419.23 318.28H377.08V382.4H419.23V318.28Z" fill="#EBEBEB"/>
<g style="mix-blend-mode:multiply" opacity="0.7">
<path d="M341.75 326.61H419.6V323.71H341.75V326.61Z" fill="#E0E0E0"/>
</g>
<path d="M339.8 324.92H377.08V311.56H339.8V324.92Z" fill="#E0E0E0"/>
<path d="M421.18 311.57H377.08V324.93H421.18V311.57Z" fill="#EBEBEB"/>
<path d="M194.06 73.9902H75.13V215.89H194.06V73.9902Z" fill="#E0E0E0"/>
<path d="M199.51 73.9902H77.68V215.89H199.51V73.9902Z" fill="#EBEBEB"/>
<path d="M194.06 215.89H75.13V226H194.06V215.89Z" fill="#E0E0E0"/>
<path d="M208.57 215.89H86.74V226H208.57V215.89Z" fill="#EBEBEB"/>
<path d="M191.89 208.27V81.6104H85.3L85.3 208.27H191.89Z" fill="#F5F5F5"/>
<path d="M98.38 208.27L143.09 81.6104H164.19L119.49 208.27H98.38Z" fill="#FAFAFA"/>
<path d="M88.82 165.3C88.6759 165.297 88.5386 165.238 88.4376 165.135C88.3366 165.032 88.28 164.894 88.28 164.75V86.5595C88.28 86.4163 88.3369 86.279 88.4382 86.1777C88.5395 86.0764 88.6768 86.0195 88.82 86.0195C88.9642 86.0195 89.1026 86.0761 89.2054 86.1771C89.3083 86.2781 89.3674 86.4154 89.37 86.5595V164.75C89.37 164.895 89.3121 165.035 89.2089 165.138C89.1058 165.242 88.9659 165.3 88.82 165.3Z" fill="#EBEBEB"/>
<path d="M124.02 208.27L168.73 81.6104H176.96L132.25 208.27H124.02Z" fill="#FAFAFA"/>
<path d="M191.88 208.27V81.6104H190.91V208.27H191.88Z" fill="#E0E0E0"/>
<path d="M201.3 91.3503H82.38L81.68 84.5703H200.6L201.3 91.3503Z" fill="#E0E0E0"/>
<path d="M201.3 96.3203H82.38L81.68 89.5303H200.6L201.3 96.3203Z" fill="#E0E0E0"/>
<path d="M201.3 102.28H82.38L81.68 95.4902H200.6L201.3 102.28Z" fill="#E0E0E0"/>
<path d="M201.3 108.91H82.38L81.68 102.13H200.6L201.3 108.91Z" fill="#E0E0E0"/>
<path d="M201.3 116.86H82.38L81.68 110.07H200.6L201.3 116.86Z" fill="#E0E0E0"/>
<path d="M201.3 125.79H82.38L81.68 119.01H200.6L201.3 125.79Z" fill="#E0E0E0"/>
<path d="M410.36 73.9902H291.43V215.89H410.36V73.9902Z" fill="#E0E0E0"/>
<path d="M415.8 73.9902H293.97V215.89H415.8V73.9902Z" fill="#EBEBEB"/>
<path d="M410.36 215.89H291.43V226H410.36V215.89Z" fill="#E0E0E0"/>
<path d="M424.87 215.89H303.04V226H424.87V215.89Z" fill="#EBEBEB"/>
<path d="M408.19 208.27V81.6104H301.6V208.27H408.19Z" fill="#F5F5F5"/>
<path d="M314.68 208.27L359.39 81.6104H380.49L335.78 208.27H314.68Z" fill="#FAFAFA"/>
<path d="M305.12 165.3C304.976 165.297 304.839 165.238 304.738 165.135C304.637 165.032 304.58 164.894 304.58 164.75V86.5595C304.58 86.4163 304.637 86.279 304.738 86.1777C304.839 86.0764 304.977 86.0195 305.12 86.0195C305.263 86.0195 305.401 86.0764 305.502 86.1777C305.603 86.279 305.66 86.4163 305.66 86.5595V164.75C305.66 164.894 305.603 165.032 305.502 165.135C305.401 165.238 305.264 165.297 305.12 165.3Z" fill="#EBEBEB"/>
<path d="M340.32 208.27L385.03 81.6104H393.25L348.55 208.27H340.32Z" fill="#FAFAFA"/>
<path d="M408.18 208.27V81.6104H407.21V208.27H408.18Z" fill="#E0E0E0"/>
<path d="M417.6 91.3503H298.68L297.97 84.5703H416.9L417.6 91.3503Z" fill="#E0E0E0"/>
<path d="M417.6 96.3203H298.68L297.97 89.5303H416.9L417.6 96.3203Z" fill="#E0E0E0"/>
<path d="M417.6 102.28H298.68L297.97 95.4902H416.9L417.6 102.28Z" fill="#E0E0E0"/>
<path d="M417.6 108.91H298.68L297.97 102.13H416.9L417.6 108.91Z" fill="#E0E0E0"/>
<path d="M417.6 116.86H298.68L297.97 110.07H416.9L417.6 116.86Z" fill="#E0E0E0"/>
<path d="M417.6 125.79H298.68L297.97 119.01H416.9L417.6 125.79Z" fill="#E0E0E0"/>
<path d="M318.04 292.46H294.29V382.4H318.04V292.46Z" fill="#E0E0E0"/>
<path d="M313.52 382.4H318.03V371.38H308.79L313.52 382.4Z" fill="#F5F5F5"/>
<path d="M87.56 292.46H63.81V382.4H87.56V292.46Z" fill="#E0E0E0"/>
<path d="M318.04 292.46H83.62V376.34H318.04V292.46Z" fill="#F5F5F5"/>
<path d="M202.34 296.66V356.56H314.54V296.66H202.34Z" fill="#E0E0E0"/>
<path d="M87.12 296.66V356.56H199.32V296.66H87.12Z" fill="#E0E0E0"/>
<path d="M314.53 369.22V362.55H202.33V369.22H314.53Z" fill="#E0E0E0"/>
<path d="M199.31 369.23V362.56H87.11V369.23H199.31Z" fill="#E0E0E0"/>
<path d="M182.73 300.24H103.73C101.976 300.241 100.24 299.888 98.626 299.2C97.0123 298.513 95.5543 297.506 94.34 296.24H192.16C190.941 297.511 189.477 298.521 187.856 299.208C186.235 299.896 184.491 300.247 182.73 300.24Z" fill="#F5F5F5"/>
<path d="M298.37 300.24H219.37C217.616 300.241 215.88 299.888 214.266 299.2C212.652 298.513 211.194 297.506 209.98 296.24H307.8C306.583 297.514 305.119 298.525 303.498 299.213C301.876 299.901 300.131 300.25 298.37 300.24Z" fill="#F5F5F5"/>
<path d="M88.13 382.4H83.61V371.38H92.85L88.13 382.4Z" fill="#F5F5F5"/>
<g style="mix-blend-mode:multiply" opacity="0.4">
<path d="M255.56 237.24H229.12V292.46H255.56V237.24Z" fill="#E0E0E0"/>
</g>
<path d="M277.77 292.46H233.02L228.81 232.83H273.55L277.77 292.46Z" fill="#E0E0E0"/>
<path d="M282.86 292.46H234.29L230.08 232.83H278.64L282.86 292.46Z" fill="#F5F5F5"/>
<path d="M236.54 290.18L232.65 235.11H276.4L280.3 290.18H236.54Z" fill="#FAFAFA"/>
<path d="M247.13 277.85L244.98 247.44H265.81L267.96 277.85H247.13Z" fill="#F5F5F5"/>
<path d="M159.35 282.67C165.768 282.67 170.97 277.467 170.97 271.05C170.97 264.632 165.768 259.43 159.35 259.43C152.932 259.43 147.73 264.632 147.73 271.05C147.73 277.467 152.932 282.67 159.35 282.67Z" fill="#EBEBEB"/>
<path d="M179.25 288.21C185.668 288.21 190.87 283.007 190.87 276.59C190.87 270.172 185.668 264.97 179.25 264.97C172.832 264.97 167.63 270.172 167.63 276.59C167.63 283.007 172.832 288.21 179.25 288.21Z" fill="#EBEBEB"/>
<path d="M199.023 278.905C202.98 277.274 204.867 272.745 203.237 268.787C201.606 264.83 197.076 262.943 193.119 264.573C189.161 266.204 187.275 270.734 188.905 274.691C190.535 278.649 195.065 280.535 199.023 278.905Z" fill="#EBEBEB"/>
<path d="M178.641 265.267C179.325 261.042 176.455 257.062 172.23 256.378C168.004 255.694 164.024 258.564 163.34 262.789C162.656 267.014 165.526 270.994 169.751 271.679C173.977 272.363 177.956 269.492 178.641 265.267Z" fill="#EBEBEB"/>
<path d="M140.77 274.51C140.77 274.51 141.68 292.46 176.55 292.46C211.42 292.46 212.33 274.51 212.33 274.51H140.77Z" fill="#E0E0E0"/>
<path d="M108.57 286.31C108.57 286.31 97.21 266.73 112.97 251.14C112.97 251.14 117.08 253.82 116.97 257.43C116.86 261.04 112.56 261.94 113.49 264.95C114.42 267.96 118.49 270.95 115.84 273.4C113.19 275.85 116.27 278.09 116.09 281.14C115.91 284.19 108.57 286.31 108.57 286.31Z" fill="#E0E0E0"/>
<path d="M109.43 288.1C109.43 288.1 114.03 265.94 94.16 256.1C94.16 256.1 91.1 259.95 92.3 263.35C93.5 266.75 97.9 266.24 97.97 269.35C98.04 272.46 95.07 276.59 98.41 278.1C101.75 279.61 99.48 282.7 100.61 285.53C101.74 288.36 109.43 288.1 109.43 288.1Z" fill="#E0E0E0"/>
<path d="M92 277.85C92 277.85 92.38 292.46 106.86 292.46C121.34 292.46 121.72 277.85 121.72 277.85H92Z" fill="#EBEBEB"/>
<path d="M250 427.56C357.082 427.56 443.89 422.492 443.89 416.24C443.89 409.988 357.082 404.92 250 404.92C142.917 404.92 56.11 409.988 56.11 416.24C56.11 422.492 142.917 427.56 250 427.56Z" fill="#F5F5F5"/>
<path d="M180.45 272.44C179.857 272.402 179.301 272.139 178.895 271.705C178.489 271.271 178.263 270.7 178.263 270.105C178.263 269.511 178.489 268.939 178.895 268.506C179.301 268.072 179.857 267.809 180.45 267.77C186.17 267.77 190.99 259.58 190.99 249.88C191.029 249.288 191.292 248.732 191.725 248.326C192.159 247.919 192.731 247.693 193.325 247.693C193.919 247.693 194.491 247.919 194.925 248.326C195.358 248.732 195.621 249.288 195.66 249.88C195.66 262.53 189 272.44 180.45 272.44Z" fill="#12743B"/>
<path d="M215.74 272.44C215.147 272.402 214.591 272.139 214.185 271.705C213.779 271.271 213.553 270.7 213.553 270.105C213.553 269.511 213.779 268.939 214.185 268.506C214.591 268.072 215.147 267.809 215.74 267.77C221.46 267.77 226.28 259.58 226.28 249.88C226.319 249.288 226.582 248.732 227.015 248.326C227.449 247.919 228.021 247.693 228.615 247.693C229.209 247.693 229.781 247.919 230.215 248.326C230.648 248.732 230.911 249.288 230.95 249.88C231 262.53 224.27 272.44 215.74 272.44Z" fill="#12743B"/>
<path d="M251 272.44C250.407 272.401 249.851 272.138 249.445 271.704C249.039 271.271 248.813 270.699 248.813 270.105C248.813 269.511 249.039 268.939 249.445 268.505C249.851 268.072 250.407 267.809 251 267.77C256.71 267.77 261.54 259.58 261.54 249.88C261.54 249.262 261.785 248.669 262.222 248.232C262.659 247.795 263.252 247.55 263.87 247.55C264.488 247.55 265.081 247.795 265.518 248.232C265.954 248.669 266.2 249.262 266.2 249.88C266.23 262.53 259.56 272.44 251 272.44Z" fill="#12743B"/>
<path d="M286.32 272.44C286 272.461 285.68 272.416 285.379 272.308C285.077 272.2 284.801 272.032 284.567 271.813C284.334 271.594 284.147 271.329 284.02 271.036C283.893 270.742 283.827 270.425 283.827 270.105C283.827 269.785 283.893 269.468 284.02 269.174C284.147 268.88 284.334 268.616 284.567 268.397C284.801 268.178 285.077 268.01 285.379 267.902C285.68 267.794 286 267.749 286.32 267.77C292.03 267.77 296.86 259.58 296.86 249.88C296.86 249.262 297.105 248.669 297.542 248.232C297.979 247.795 298.572 247.55 299.19 247.55C299.808 247.55 300.401 247.795 300.838 248.232C301.274 248.669 301.52 249.262 301.52 249.88C301.52 262.53 294.84 272.44 286.32 272.44Z" fill="#12743B"/>
<path d="M321.6 272.44C321.007 272.402 320.451 272.139 320.045 271.705C319.639 271.271 319.413 270.7 319.413 270.105C319.413 269.511 319.639 268.939 320.045 268.506C320.451 268.072 321.007 267.809 321.6 267.77C327.32 267.77 332.14 259.58 332.14 249.88C332.179 249.288 332.442 248.732 332.875 248.326C333.309 247.919 333.881 247.693 334.475 247.693C335.069 247.693 335.641 247.919 336.075 248.326C336.508 248.732 336.771 249.288 336.81 249.88C336.81 262.53 330.13 272.44 321.6 272.44Z" fill="#12743B"/>
<path d="M356.89 272.44C356.297 272.402 355.741 272.139 355.335 271.705C354.929 271.271 354.703 270.7 354.703 270.105C354.703 269.511 354.929 268.939 355.335 268.506C355.741 268.072 356.297 267.809 356.89 267.77C362.6 267.77 367.43 259.58 367.43 249.88C367.469 249.288 367.732 248.732 368.165 248.326C368.599 247.919 369.171 247.693 369.765 247.693C370.359 247.693 370.931 247.919 371.365 248.326C371.798 248.732 372.061 249.288 372.1 249.88C372.1 262.53 365.42 272.44 356.89 272.44Z" fill="#12743B"/>
<g opacity="0.3">
<path d="M180.45 272.439C179.857 272.401 179.301 272.138 178.895 271.704C178.489 271.271 178.263 270.699 178.263 270.105C178.263 269.51 178.489 268.938 178.895 268.505C179.301 268.071 179.857 267.808 180.45 267.769C186.17 267.769 190.99 259.58 190.99 249.88C191.029 249.287 191.292 248.731 191.725 248.325C192.159 247.918 192.731 247.692 193.325 247.692C193.919 247.692 194.491 247.918 194.925 248.325C195.358 248.731 195.621 249.287 195.66 249.88C195.66 262.53 189 272.439 180.45 272.439Z" fill="black"/>
<path d="M215.74 272.439C215.147 272.401 214.591 272.138 214.185 271.704C213.779 271.271 213.553 270.699 213.553 270.105C213.553 269.51 213.779 268.938 214.185 268.505C214.591 268.071 215.147 267.808 215.74 267.769C221.46 267.769 226.28 259.58 226.28 249.88C226.319 249.287 226.582 248.731 227.015 248.325C227.449 247.918 228.021 247.692 228.615 247.692C229.209 247.692 229.781 247.918 230.215 248.325C230.648 248.731 230.911 249.287 230.95 249.88C231 262.53 224.27 272.439 215.74 272.439Z" fill="black"/>
<path d="M251 272.44C250.407 272.401 249.851 272.138 249.445 271.704C249.039 271.271 248.813 270.699 248.813 270.105C248.813 269.511 249.039 268.939 249.445 268.505C249.851 268.072 250.407 267.809 251 267.77C256.71 267.77 261.54 259.58 261.54 249.88C261.54 249.262 261.785 248.669 262.222 248.232C262.659 247.795 263.252 247.55 263.87 247.55C264.488 247.55 265.081 247.795 265.518 248.232C265.954 248.669 266.2 249.262 266.2 249.88C266.23 262.53 259.56 272.44 251 272.44Z" fill="black"/>
<path d="M286.32 272.44C286 272.461 285.68 272.416 285.379 272.308C285.077 272.2 284.801 272.032 284.567 271.813C284.334 271.594 284.147 271.329 284.02 271.036C283.893 270.742 283.827 270.425 283.827 270.105C283.827 269.785 283.893 269.468 284.02 269.174C284.147 268.88 284.334 268.616 284.567 268.397C284.801 268.178 285.077 268.01 285.379 267.902C285.68 267.794 286 267.749 286.32 267.77C292.03 267.77 296.86 259.58 296.86 249.88C296.86 249.262 297.105 248.669 297.542 248.232C297.979 247.795 298.572 247.55 299.19 247.55C299.808 247.55 300.401 247.795 300.838 248.232C301.274 248.669 301.52 249.262 301.52 249.88C301.52 262.53 294.84 272.44 286.32 272.44Z" fill="black"/>
<path d="M321.6 272.439C321.007 272.401 320.451 272.138 320.045 271.704C319.639 271.271 319.413 270.699 319.413 270.105C319.413 269.51 319.639 268.938 320.045 268.505C320.451 268.071 321.007 267.808 321.6 267.769C327.32 267.769 332.14 259.58 332.14 249.88C332.179 249.287 332.442 248.731 332.875 248.325C333.309 247.918 333.881 247.692 334.475 247.692C335.069 247.692 335.641 247.918 336.075 248.325C336.508 248.731 336.771 249.287 336.81 249.88C336.81 262.53 330.13 272.439 321.6 272.439Z" fill="black"/>
<path d="M356.89 272.439C356.297 272.401 355.741 272.138 355.335 271.704C354.929 271.271 354.703 270.699 354.703 270.105C354.703 269.51 354.929 268.938 355.335 268.505C355.741 268.071 356.297 267.808 356.89 267.769C362.6 267.769 367.43 259.58 367.43 249.88C367.469 249.287 367.732 248.731 368.165 248.325C368.599 247.918 369.171 247.692 369.765 247.692C370.359 247.692 370.931 247.918 371.365 248.325C371.798 248.731 372.061 249.287 372.1 249.88C372.1 262.53 365.42 272.439 356.89 272.439Z" fill="black"/>
</g>
<path d="M158.34 252.27H385.52C388.566 252.331 391.485 253.501 393.729 255.561C395.974 257.622 397.389 260.43 397.71 263.46L410.29 405.29C410.443 406.713 410.292 408.152 409.847 409.513C409.402 410.873 408.674 412.124 407.71 413.182C406.745 414.239 405.568 415.08 404.254 415.649C402.94 416.218 401.521 416.501 400.09 416.48H172.9C169.855 416.415 166.939 415.243 164.695 413.183C162.452 411.124 161.035 408.318 160.71 405.29L148.14 263.46C147.985 262.036 148.135 260.596 148.579 259.235C149.023 257.874 149.752 256.623 150.716 255.565C151.681 254.506 152.86 253.665 154.174 253.097C155.488 252.529 156.908 252.247 158.34 252.27Z" fill="#12743B"/>
<path opacity="0.4" d="M158.34 252.27H385.52C388.566 252.331 391.485 253.501 393.729 255.561C395.974 257.622 397.389 260.43 397.71 263.46L410.29 405.29C410.443 406.713 410.292 408.152 409.847 409.513C409.402 410.873 408.674 412.124 407.71 413.182C406.745 414.239 405.568 415.08 404.254 415.649C402.94 416.218 401.521 416.501 400.09 416.48H172.9C169.855 416.415 166.939 415.243 164.695 413.183C162.452 411.124 161.035 408.318 160.71 405.29L148.14 263.46C147.985 262.036 148.135 260.596 148.579 259.235C149.023 257.874 149.752 256.623 150.716 255.565C151.681 254.506 152.86 253.665 154.174 253.097C155.488 252.529 156.908 252.247 158.34 252.27Z" fill="#FAFAFA"/>
<path d="M383.63 252.27H156.44C153.435 252.305 150.556 253.481 148.384 255.558C146.212 257.635 144.91 260.459 144.74 263.46L138.34 405.29C138.264 406.735 138.483 408.18 138.985 409.537C139.487 410.894 140.261 412.134 141.259 413.182C142.257 414.229 143.458 415.062 144.789 415.629C146.12 416.196 147.553 416.486 149 416.48H376.21C379.215 416.444 382.094 415.269 384.266 413.192C386.438 411.114 387.74 408.29 387.91 405.29L394.32 263.46C394.395 262.013 394.173 260.566 393.669 259.207C393.165 257.849 392.389 256.608 391.388 255.56C390.387 254.512 389.182 253.68 387.848 253.114C386.514 252.548 385.079 252.261 383.63 252.27Z" fill="#12743B"/>
<path opacity="0.2" d="M383.63 252.27H156.44C153.435 252.305 150.556 253.481 148.384 255.558C146.212 257.635 144.91 260.459 144.74 263.46L138.34 405.29C138.264 406.735 138.483 408.18 138.985 409.537C139.487 410.894 140.261 412.134 141.259 413.182C142.257 414.229 143.458 415.062 144.789 415.629C146.12 416.196 147.553 416.486 149 416.48H376.21C379.215 416.444 382.094 415.269 384.266 413.192C386.438 411.114 387.74 408.29 387.91 405.29L394.32 263.46C394.395 262.013 394.173 260.566 393.669 259.207C393.165 257.849 392.389 256.608 391.388 255.56C390.387 254.512 389.182 253.68 387.848 253.114C386.514 252.548 385.079 252.261 383.63 252.27Z" fill="#FAFAFA"/>
<path d="M160.61 379L165.9 261.87C165.963 260.721 166.462 259.639 167.294 258.844C168.126 258.049 169.229 257.601 170.38 257.59H369.21C369.764 257.586 370.313 257.696 370.824 257.913C371.334 258.129 371.795 258.447 372.178 258.848C372.561 259.249 372.858 259.723 373.051 260.243C373.244 260.763 373.329 261.316 373.3 261.87L368 379C367.937 380.149 367.438 381.231 366.606 382.026C365.774 382.821 364.671 383.269 363.52 383.28H164.7C164.146 383.283 163.597 383.174 163.086 382.957C162.576 382.741 162.115 382.423 161.732 382.022C161.349 381.621 161.052 381.146 160.859 380.627C160.666 380.107 160.581 379.553 160.61 379Z" fill="#12743B"/>
<path opacity="0.1" d="M160.61 379L165.9 261.87C165.963 260.721 166.462 259.639 167.294 258.844C168.126 258.049 169.229 257.601 170.38 257.59H369.21C369.764 257.586 370.313 257.696 370.824 257.913C371.334 258.129 371.795 258.447 372.178 258.848C372.561 259.249 372.858 259.723 373.051 260.243C373.244 260.763 373.329 261.316 373.3 261.87L368 379C367.937 380.149 367.438 381.231 366.606 382.026C365.774 382.821 364.671 383.269 363.52 383.28H164.7C164.146 383.283 163.597 383.174 163.086 382.957C162.576 382.741 162.115 382.423 161.732 382.022C161.349 381.621 161.052 381.146 160.859 380.627C160.666 380.107 160.581 379.553 160.61 379Z" fill="#FAFAFA"/>
<path opacity="0.1" d="M155 388.56L160.55 265.56C160.614 264.354 161.136 263.217 162.009 262.383C162.883 261.548 164.042 261.079 165.25 261.07H374.05C374.632 261.066 375.209 261.18 375.744 261.406C376.28 261.633 376.764 261.967 377.166 262.387C377.568 262.808 377.88 263.307 378.082 263.852C378.284 264.398 378.371 264.979 378.34 265.56L372.78 388.56C372.717 389.766 372.196 390.902 371.325 391.738C370.454 392.574 369.297 393.047 368.09 393.06H159.27C158.689 393.064 158.112 392.949 157.577 392.721C157.042 392.493 156.56 392.158 156.16 391.736C155.759 391.314 155.45 390.815 155.25 390.268C155.051 389.722 154.966 389.141 155 388.56Z" fill="black"/>
<path d="M149.84 398.48L155.63 270.18C155.708 268.926 156.255 267.747 157.163 266.877C158.071 266.008 159.273 265.513 160.53 265.49H378.34C378.948 265.485 379.55 265.605 380.11 265.842C380.669 266.078 381.175 266.427 381.594 266.866C382.014 267.306 382.339 267.827 382.55 268.397C382.761 268.967 382.853 269.574 382.82 270.18L377 398.48C376.922 399.735 376.375 400.914 375.467 401.783C374.559 402.652 373.357 403.148 372.1 403.17H154.32C153.712 403.177 153.109 403.058 152.549 402.822C151.988 402.586 151.482 402.237 151.062 401.797C150.642 401.358 150.317 400.836 150.107 400.266C149.896 399.695 149.806 399.088 149.84 398.48Z" fill="#FAFAFA"/>
<path d="M356.86 273.18C356.45 273.181 356.045 273.098 355.669 272.936C355.293 272.774 354.953 272.537 354.672 272.239C354.391 271.941 354.174 271.588 354.035 271.203C353.895 270.818 353.835 270.409 353.86 270C353.898 269.198 354.241 268.44 354.819 267.883C355.398 267.325 356.167 267.009 356.97 267C357.38 266.999 357.785 267.082 358.161 267.244C358.537 267.406 358.877 267.643 359.158 267.941C359.439 268.239 359.656 268.592 359.795 268.977C359.935 269.362 359.995 269.771 359.97 270.18C359.932 270.982 359.589 271.74 359.01 272.297C358.432 272.855 357.663 273.171 356.86 273.18Z" fill="#12743B"/>
<path d="M321.57 273.18C321.16 273.181 320.755 273.098 320.379 272.936C320.003 272.774 319.663 272.537 319.382 272.239C319.101 271.941 318.884 271.588 318.745 271.203C318.605 270.818 318.545 270.409 318.57 270C318.608 269.198 318.951 268.44 319.529 267.883C320.108 267.325 320.877 267.009 321.68 267C322.09 266.999 322.495 267.082 322.871 267.244C323.247 267.406 323.586 267.643 323.868 267.941C324.149 268.239 324.366 268.592 324.505 268.977C324.645 269.362 324.705 269.771 324.68 270.18C324.644 270.983 324.302 271.742 323.723 272.3C323.144 272.858 322.374 273.173 321.57 273.18Z" fill="#12743B"/>
<path d="M286.28 273.18C285.87 273.181 285.465 273.098 285.089 272.936C284.713 272.774 284.373 272.537 284.092 272.239C283.811 271.941 283.594 271.588 283.455 271.203C283.315 270.818 283.255 270.409 283.28 270C283.32 269.199 283.664 268.442 284.242 267.885C284.82 267.328 285.588 267.012 286.39 267C286.8 266.999 287.205 267.082 287.581 267.244C287.957 267.406 288.296 267.643 288.578 267.941C288.859 268.239 289.076 268.592 289.215 268.977C289.355 269.362 289.415 269.771 289.39 270.18C289.354 270.983 289.012 271.742 288.433 272.3C287.854 272.858 287.084 273.173 286.28 273.18Z" fill="#12743B"/>
<path d="M251 273.18C250.59 273.181 250.185 273.098 249.809 272.936C249.433 272.774 249.093 272.537 248.812 272.239C248.531 271.941 248.314 271.588 248.175 271.203C248.035 270.818 247.975 270.409 248 270C248.043 269.198 248.389 268.442 248.968 267.885C249.547 267.328 250.317 267.012 251.12 267C251.53 266.999 251.935 267.082 252.311 267.244C252.687 267.406 253.026 267.643 253.308 267.941C253.589 268.239 253.806 268.592 253.945 268.977C254.085 269.362 254.145 269.771 254.12 270.18C254.084 270.985 253.74 271.745 253.159 272.303C252.579 272.862 251.806 273.176 251 273.18Z" fill="#12743B"/>
<path d="M215.71 273.18C215.3 273.181 214.895 273.098 214.519 272.936C214.143 272.774 213.803 272.537 213.522 272.239C213.241 271.941 213.024 271.588 212.885 271.203C212.745 270.818 212.685 270.409 212.71 270C212.748 269.198 213.091 268.44 213.669 267.883C214.248 267.325 215.017 267.009 215.82 267C216.23 266.999 216.635 267.082 217.011 267.244C217.387 267.406 217.727 267.643 218.008 267.941C218.289 268.239 218.506 268.592 218.645 268.977C218.785 269.362 218.845 269.771 218.82 270.18C218.782 270.982 218.439 271.74 217.86 272.297C217.282 272.855 216.513 273.171 215.71 273.18Z" fill="#12743B"/>
<path d="M180.42 273.18C180.01 273.181 179.605 273.098 179.229 272.936C178.853 272.774 178.513 272.537 178.232 272.239C177.951 271.941 177.734 271.588 177.595 271.203C177.455 270.818 177.395 270.409 177.42 270C177.458 269.198 177.801 268.44 178.379 267.883C178.958 267.325 179.727 267.009 180.53 267C180.94 266.999 181.345 267.082 181.721 267.244C182.097 267.406 182.436 267.643 182.718 267.941C182.999 268.239 183.216 268.592 183.355 268.977C183.495 269.362 183.555 269.771 183.53 270.18C183.494 270.983 183.152 271.742 182.573 272.3C181.994 272.858 181.224 273.173 180.42 273.18Z" fill="#12743B"/>
<g opacity="0.1">
<path d="M356.86 273.18C356.45 273.181 356.045 273.098 355.669 272.936C355.293 272.774 354.953 272.537 354.672 272.239C354.391 271.941 354.174 271.588 354.035 271.203C353.895 270.818 353.835 270.409 353.86 270C353.898 269.198 354.241 268.44 354.819 267.883C355.398 267.325 356.167 267.009 356.97 267C357.38 266.999 357.785 267.082 358.161 267.244C358.537 267.406 358.877 267.643 359.158 267.941C359.439 268.239 359.656 268.592 359.795 268.977C359.935 269.362 359.995 269.771 359.97 270.18C359.932 270.982 359.589 271.74 359.01 272.297C358.432 272.855 357.663 273.171 356.86 273.18Z" fill="#FAFAFA"/>
<path d="M321.57 273.18C321.16 273.181 320.755 273.098 320.379 272.936C320.003 272.774 319.663 272.537 319.382 272.239C319.101 271.941 318.884 271.588 318.745 271.203C318.605 270.818 318.545 270.409 318.57 270C318.608 269.198 318.951 268.44 319.529 267.883C320.108 267.325 320.877 267.009 321.68 267C322.09 266.999 322.495 267.082 322.871 267.244C323.247 267.406 323.586 267.643 323.868 267.941C324.149 268.239 324.366 268.592 324.505 268.977C324.645 269.362 324.705 269.771 324.68 270.18C324.644 270.983 324.302 271.742 323.723 272.3C323.144 272.858 322.374 273.173 321.57 273.18Z" fill="#FAFAFA"/>
<path d="M286.28 273.18C285.87 273.181 285.465 273.098 285.089 272.936C284.713 272.774 284.373 272.537 284.092 272.239C283.811 271.941 283.594 271.588 283.455 271.203C283.315 270.818 283.255 270.409 283.28 270C283.32 269.199 283.664 268.442 284.242 267.885C284.82 267.328 285.588 267.012 286.39 267C286.8 266.999 287.205 267.082 287.581 267.244C287.957 267.406 288.296 267.643 288.578 267.941C288.859 268.239 289.076 268.592 289.215 268.977C289.355 269.362 289.415 269.771 289.39 270.18C289.354 270.983 289.012 271.742 288.433 272.3C287.854 272.858 287.084 273.173 286.28 273.18Z" fill="#FAFAFA"/>
<path d="M251 273.18C250.59 273.181 250.185 273.098 249.809 272.936C249.433 272.774 249.093 272.537 248.812 272.239C248.531 271.941 248.314 271.588 248.175 271.203C248.035 270.818 247.975 270.409 248 270C248.043 269.198 248.389 268.442 248.968 267.885C249.547 267.328 250.317 267.012 251.12 267C251.53 266.999 251.935 267.082 252.311 267.244C252.687 267.406 253.026 267.643 253.308 267.941C253.589 268.239 253.806 268.592 253.945 268.977C254.085 269.362 254.145 269.771 254.12 270.18C254.084 270.985 253.74 271.745 253.159 272.303C252.579 272.862 251.806 273.176 251 273.18Z" fill="#FAFAFA"/>
<path d="M215.71 273.18C215.3 273.181 214.895 273.098 214.519 272.936C214.143 272.774 213.803 272.537 213.522 272.239C213.241 271.941 213.024 271.588 212.885 271.203C212.745 270.818 212.685 270.409 212.71 270C212.748 269.198 213.091 268.44 213.669 267.883C214.248 267.325 215.017 267.009 215.82 267C216.23 266.999 216.635 267.082 217.011 267.244C217.387 267.406 217.727 267.643 218.008 267.941C218.289 268.239 218.506 268.592 218.645 268.977C218.785 269.362 218.845 269.771 218.82 270.18C218.782 270.982 218.439 271.74 217.86 272.297C217.282 272.855 216.513 273.171 215.71 273.18Z" fill="#FAFAFA"/>
<path d="M180.42 273.18C180.01 273.181 179.605 273.098 179.229 272.936C178.853 272.774 178.513 272.537 178.232 272.239C177.951 271.941 177.734 271.588 177.595 271.203C177.455 270.818 177.395 270.409 177.42 270C177.458 269.198 177.801 268.44 178.379 267.883C178.958 267.325 179.727 267.009 180.53 267C180.94 266.999 181.345 267.082 181.721 267.244C182.097 267.406 182.436 267.643 182.718 267.941C182.999 268.239 183.216 268.592 183.355 268.977C183.495 269.362 183.555 269.771 183.53 270.18C183.494 270.983 183.152 271.742 182.573 272.3C181.994 272.858 181.224 273.173 180.42 273.18Z" fill="#FAFAFA"/>
</g>
<path d="M189.24 284.36H171.49C171.233 284.363 170.978 284.311 170.741 284.21C170.505 284.108 170.292 283.959 170.116 283.771C169.94 283.583 169.805 283.36 169.72 283.118C169.635 282.875 169.601 282.617 169.62 282.36C169.64 281.836 169.857 281.339 170.228 280.968C170.599 280.597 171.096 280.38 171.62 280.36H189.37C189.627 280.358 189.882 280.41 190.119 280.511C190.355 280.613 190.568 280.762 190.744 280.95C190.92 281.138 191.054 281.36 191.14 281.603C191.225 281.846 191.259 282.104 191.24 282.36C191.22 282.885 191.003 283.382 190.632 283.753C190.261 284.124 189.764 284.341 189.24 284.36Z" fill="#12743B"/>
<path d="M224.53 284.36H206.78C206.523 284.363 206.268 284.311 206.031 284.21C205.795 284.108 205.582 283.959 205.406 283.771C205.23 283.583 205.095 283.36 205.01 283.118C204.925 282.875 204.891 282.617 204.91 282.36C204.93 281.828 205.154 281.324 205.536 280.951C205.917 280.579 206.427 280.368 206.96 280.36H224.7C224.958 280.358 225.213 280.41 225.45 280.511C225.687 280.612 225.9 280.762 226.077 280.95C226.254 281.137 226.389 281.36 226.476 281.602C226.562 281.845 226.598 282.103 226.58 282.36C226.559 282.893 226.335 283.397 225.954 283.769C225.573 284.142 225.063 284.353 224.53 284.36Z" fill="#12743B"/>
<path d="M259.82 284.36H242.07C241.812 284.362 241.557 284.311 241.32 284.21C241.083 284.108 240.869 283.959 240.693 283.771C240.516 283.583 240.381 283.361 240.294 283.118C240.207 282.876 240.172 282.618 240.19 282.36C240.21 281.828 240.434 281.324 240.816 280.951C241.197 280.579 241.707 280.368 242.24 280.36H260C260.257 280.358 260.512 280.41 260.749 280.511C260.985 280.613 261.198 280.762 261.374 280.95C261.55 281.138 261.684 281.36 261.77 281.603C261.855 281.846 261.889 282.104 261.87 282.36C261.852 282.894 261.629 283.4 261.247 283.772C260.865 284.145 260.354 284.356 259.82 284.36Z" fill="#12743B"/>
<path d="M295.1 284.36H277.35C277.093 284.363 276.838 284.311 276.601 284.21C276.365 284.108 276.152 283.959 275.976 283.771C275.8 283.583 275.666 283.36 275.58 283.118C275.495 282.875 275.461 282.617 275.48 282.36C275.5 281.836 275.717 281.339 276.088 280.968C276.459 280.597 276.956 280.38 277.48 280.36H295.23C295.487 280.358 295.742 280.41 295.979 280.511C296.215 280.613 296.428 280.762 296.604 280.95C296.78 281.138 296.915 281.36 297 281.603C297.085 281.846 297.119 282.104 297.1 282.36C297.08 282.885 296.863 283.382 296.492 283.753C296.121 284.124 295.624 284.341 295.1 284.36Z" fill="#12743B"/>
<path d="M330.39 284.36H312.64C312.383 284.363 312.128 284.311 311.891 284.21C311.655 284.108 311.442 283.959 311.266 283.771C311.09 283.583 310.955 283.36 310.87 283.118C310.785 282.875 310.751 282.617 310.77 282.36C310.79 281.828 311.014 281.324 311.396 280.951C311.777 280.579 312.287 280.368 312.82 280.36H330.57C330.827 280.358 331.082 280.41 331.319 280.511C331.555 280.613 331.768 280.762 331.944 280.95C332.12 281.138 332.254 281.36 332.34 281.603C332.425 281.846 332.459 282.104 332.44 282.36C332.419 282.893 332.195 283.397 331.814 283.769C331.433 284.142 330.923 284.353 330.39 284.36Z" fill="#12743B"/>
<path d="M365.68 284.36H347.93C347.673 284.363 347.418 284.311 347.181 284.21C346.945 284.108 346.732 283.959 346.556 283.771C346.38 283.583 346.245 283.36 346.16 283.118C346.075 282.875 346.041 282.617 346.06 282.36C346.08 281.828 346.304 281.324 346.686 280.951C347.067 280.579 347.577 280.368 348.11 280.36H365.85C366.108 280.358 366.363 280.41 366.6 280.511C366.837 280.612 367.05 280.762 367.227 280.95C367.404 281.137 367.539 281.36 367.626 281.602C367.712 281.845 367.748 282.103 367.73 282.36C367.71 282.893 367.485 283.397 367.104 283.769C366.723 284.142 366.213 284.353 365.68 284.36Z" fill="#12743B"/>
<g opacity="0.3">
<path d="M189.24 284.36H171.49C171.233 284.363 170.978 284.311 170.741 284.21C170.505 284.108 170.292 283.959 170.116 283.771C169.94 283.583 169.805 283.36 169.72 283.118C169.635 282.875 169.601 282.617 169.62 282.36C169.64 281.836 169.857 281.339 170.228 280.968C170.599 280.597 171.096 280.38 171.62 280.36H189.37C189.627 280.358 189.882 280.41 190.119 280.511C190.355 280.613 190.568 280.762 190.744 280.95C190.92 281.138 191.054 281.36 191.14 281.603C191.225 281.846 191.259 282.104 191.24 282.36C191.22 282.885 191.003 283.382 190.632 283.753C190.261 284.124 189.764 284.341 189.24 284.36Z" fill="black"/>
<path d="M224.53 284.36H206.78C206.523 284.363 206.268 284.311 206.031 284.21C205.795 284.108 205.582 283.959 205.406 283.771C205.23 283.583 205.095 283.36 205.01 283.118C204.925 282.875 204.891 282.617 204.91 282.36C204.93 281.828 205.154 281.324 205.536 280.951C205.917 280.579 206.427 280.368 206.96 280.36H224.7C224.958 280.358 225.213 280.41 225.45 280.511C225.687 280.612 225.9 280.762 226.077 280.95C226.254 281.137 226.389 281.36 226.476 281.602C226.562 281.845 226.598 282.103 226.58 282.36C226.559 282.893 226.335 283.397 225.954 283.769C225.573 284.142 225.063 284.353 224.53 284.36Z" fill="black"/>
<path d="M259.82 284.36H242.07C241.812 284.362 241.557 284.311 241.32 284.21C241.083 284.108 240.869 283.959 240.693 283.771C240.516 283.583 240.381 283.361 240.294 283.118C240.207 282.876 240.172 282.618 240.19 282.36C240.21 281.828 240.434 281.324 240.816 280.951C241.197 280.579 241.707 280.368 242.24 280.36H260C260.257 280.358 260.512 280.41 260.749 280.511C260.985 280.613 261.198 280.762 261.374 280.95C261.55 281.138 261.684 281.36 261.77 281.603C261.855 281.846 261.889 282.104 261.87 282.36C261.852 282.894 261.629 283.4 261.247 283.772C260.865 284.145 260.354 284.356 259.82 284.36Z" fill="black"/>
<path d="M295.1 284.36H277.35C277.093 284.363 276.838 284.311 276.601 284.21C276.365 284.108 276.152 283.959 275.976 283.771C275.8 283.583 275.666 283.36 275.58 283.118C275.495 282.875 275.461 282.617 275.48 282.36C275.5 281.836 275.717 281.339 276.088 280.968C276.459 280.597 276.956 280.38 277.48 280.36H295.23C295.487 280.358 295.742 280.41 295.979 280.511C296.215 280.613 296.428 280.762 296.604 280.95C296.78 281.138 296.915 281.36 297 281.603C297.085 281.846 297.119 282.104 297.1 282.36C297.08 282.885 296.863 283.382 296.492 283.753C296.121 284.124 295.624 284.341 295.1 284.36Z" fill="black"/>
<path d="M330.39 284.36H312.64C312.383 284.363 312.128 284.311 311.891 284.21C311.655 284.108 311.442 283.959 311.266 283.771C311.09 283.583 310.955 283.36 310.87 283.118C310.785 282.875 310.751 282.617 310.77 282.36C310.79 281.828 311.014 281.324 311.396 280.951C311.777 280.579 312.287 280.368 312.82 280.36H330.57C330.827 280.358 331.082 280.41 331.319 280.511C331.555 280.613 331.768 280.762 331.944 280.95C332.12 281.138 332.254 281.36 332.34 281.603C332.425 281.846 332.459 282.104 332.44 282.36C332.419 282.893 332.195 283.397 331.814 283.769C331.433 284.142 330.923 284.353 330.39 284.36Z" fill="black"/>
<path d="M365.68 284.36H347.93C347.673 284.363 347.418 284.311 347.181 284.21C346.945 284.108 346.732 283.959 346.556 283.771C346.38 283.583 346.245 283.36 346.16 283.118C346.075 282.875 346.041 282.617 346.06 282.36C346.08 281.828 346.304 281.324 346.686 280.951C347.067 280.579 347.577 280.368 348.11 280.36H365.85C366.108 280.358 366.363 280.41 366.6 280.511C366.837 280.612 367.05 280.762 367.227 280.95C367.404 281.137 367.539 281.36 367.626 281.602C367.712 281.845 367.748 282.103 367.73 282.36C367.71 282.893 367.485 283.397 367.104 283.769C366.723 284.142 366.213 284.353 365.68 284.36Z" fill="black"/>
</g>
<path d="M190.22 322.13H167.1C166.593 322.132 166.091 322.031 165.624 321.832C165.158 321.633 164.736 321.342 164.386 320.975C164.036 320.608 163.765 320.173 163.588 319.698C163.412 319.223 163.334 318.716 163.36 318.21L164.36 295.09C164.421 294.039 164.877 293.05 165.638 292.323C166.399 291.595 167.407 291.183 168.46 291.17H191.58C192.087 291.168 192.589 291.269 193.056 291.468C193.522 291.667 193.943 291.958 194.294 292.325C194.644 292.692 194.915 293.126 195.092 293.602C195.268 294.077 195.346 294.584 195.32 295.09L194.32 318.21C194.257 319.26 193.799 320.247 193.039 320.974C192.279 321.701 191.272 322.114 190.22 322.13Z" fill="#12743B"/>
<path d="M225.51 322.13H202.39C201.882 322.133 201.38 322.033 200.912 321.835C200.445 321.637 200.023 321.345 199.673 320.978C199.323 320.611 199.051 320.176 198.875 319.7C198.699 319.224 198.623 318.717 198.65 318.21L199.65 295.09C199.711 294.039 200.167 293.05 200.928 292.323C201.689 291.595 202.697 291.183 203.75 291.17H226.9C227.407 291.168 227.91 291.269 228.377 291.468C228.844 291.666 229.266 291.958 229.617 292.325C229.968 292.691 230.24 293.126 230.418 293.601C230.595 294.076 230.674 294.583 230.65 295.09L229.6 318.21C229.542 319.26 229.087 320.249 228.328 320.976C227.569 321.704 226.562 322.116 225.51 322.13Z" fill="#12743B"/>
<path d="M260.79 322.13H237.68C237.172 322.132 236.67 322.031 236.203 321.832C235.736 321.634 235.314 321.342 234.963 320.975C234.612 320.609 234.34 320.174 234.162 319.699C233.985 319.223 233.906 318.717 233.93 318.21L234.93 295.09C234.991 294.039 235.447 293.05 236.208 292.323C236.969 291.595 237.977 291.183 239.03 291.17H262.14C262.648 291.167 263.15 291.267 263.618 291.465C264.085 291.663 264.507 291.955 264.857 292.322C265.207 292.689 265.479 293.124 265.655 293.6C265.831 294.076 265.907 294.583 265.88 295.09L264.88 318.21C264.819 319.259 264.364 320.247 263.605 320.974C262.847 321.701 261.841 322.114 260.79 322.13Z" fill="#12743B"/>
<path d="M296.08 322.13H273C272.492 322.133 271.989 322.033 271.521 321.835C271.053 321.637 270.631 321.345 270.28 320.978C269.929 320.611 269.656 320.177 269.479 319.7C269.302 319.224 269.224 318.717 269.25 318.21L270.25 295.09C270.308 294.04 270.763 293.051 271.522 292.323C272.281 291.596 273.288 291.184 274.34 291.17H297.46C297.967 291.168 298.469 291.269 298.936 291.468C299.402 291.667 299.824 291.958 300.174 292.325C300.524 292.692 300.795 293.126 300.972 293.602C301.148 294.077 301.226 294.584 301.2 295.09L300.2 318.21C300.139 319.264 299.679 320.256 298.914 320.984C298.149 321.712 297.136 322.122 296.08 322.13Z" fill="#12743B"/>
<path d="M331.37 322.13H308.25C307.743 322.132 307.241 322.031 306.774 321.832C306.308 321.633 305.886 321.342 305.536 320.975C305.186 320.608 304.915 320.174 304.738 319.698C304.562 319.223 304.484 318.716 304.51 318.21L305.51 295.09C305.571 294.039 306.027 293.05 306.788 292.323C307.549 291.595 308.557 291.183 309.61 291.17H332.72C333.228 291.167 333.731 291.267 334.199 291.465C334.667 291.663 335.089 291.954 335.44 292.321C335.791 292.689 336.064 293.123 336.241 293.599C336.418 294.076 336.496 294.583 336.47 295.09L335.47 318.21C335.407 319.26 334.95 320.248 334.189 320.975C333.429 321.701 332.422 322.114 331.37 322.13Z" fill="#12743B"/>
<path d="M366.65 322.13H343.54C343.032 322.133 342.53 322.033 342.062 321.835C341.595 321.637 341.173 321.345 340.823 320.978C340.473 320.611 340.201 320.176 340.025 319.7C339.849 319.224 339.773 318.717 339.8 318.21L340.8 295.09C340.861 294.039 341.317 293.05 342.078 292.323C342.839 291.595 343.847 291.183 344.9 291.17H368.01C368.517 291.168 369.02 291.269 369.487 291.468C369.954 291.666 370.376 291.958 370.727 292.325C371.078 292.691 371.35 293.126 371.528 293.601C371.705 294.076 371.784 294.583 371.76 295.09L370.71 318.21C370.652 319.255 370.202 320.239 369.449 320.966C368.696 321.693 367.696 322.109 366.65 322.13Z" fill="#12743B"/>
<g opacity="0.8">
<path d="M190.22 322.13H167.1C166.593 322.132 166.091 322.031 165.624 321.832C165.158 321.633 164.736 321.342 164.386 320.975C164.036 320.608 163.765 320.173 163.588 319.698C163.412 319.223 163.334 318.716 163.36 318.21L164.36 295.09C164.421 294.039 164.877 293.05 165.638 292.323C166.399 291.595 167.407 291.183 168.46 291.17H191.58C192.087 291.168 192.589 291.269 193.056 291.468C193.522 291.667 193.943 291.958 194.294 292.325C194.644 292.692 194.915 293.126 195.092 293.602C195.268 294.077 195.346 294.584 195.32 295.09L194.32 318.21C194.257 319.26 193.799 320.247 193.039 320.974C192.279 321.701 191.272 322.114 190.22 322.13Z" fill="#FAFAFA"/>
<path d="M225.51 322.13H202.39C201.882 322.133 201.38 322.033 200.912 321.835C200.445 321.637 200.023 321.345 199.673 320.978C199.323 320.611 199.051 320.176 198.875 319.7C198.699 319.224 198.623 318.717 198.65 318.21L199.65 295.09C199.711 294.039 200.167 293.05 200.928 292.323C201.689 291.595 202.697 291.183 203.75 291.17H226.9C227.407 291.168 227.91 291.269 228.377 291.468C228.844 291.666 229.266 291.958 229.617 292.325C229.968 292.691 230.24 293.126 230.418 293.601C230.595 294.076 230.674 294.583 230.65 295.09L229.6 318.21C229.542 319.26 229.087 320.249 228.328 320.976C227.569 321.704 226.561 322.116 225.51 322.13Z" fill="#FAFAFA"/>
<path d="M260.79 322.13H237.68C237.172 322.132 236.67 322.031 236.203 321.832C235.736 321.634 235.314 321.342 234.963 320.975C234.612 320.609 234.34 320.174 234.162 319.699C233.985 319.223 233.906 318.717 233.93 318.21L234.93 295.09C234.991 294.039 235.447 293.05 236.208 292.323C236.969 291.595 237.977 291.183 239.03 291.17H262.14C262.647 291.167 263.15 291.267 263.617 291.465C264.085 291.663 264.507 291.955 264.857 292.322C265.207 292.689 265.479 293.124 265.655 293.6C265.831 294.076 265.907 294.583 265.88 295.09L264.88 318.21C264.819 319.259 264.364 320.247 263.605 320.974C262.847 321.701 261.841 322.114 260.79 322.13Z" fill="#FAFAFA"/>
<path d="M296.08 322.13H273C272.492 322.133 271.989 322.033 271.521 321.835C271.053 321.637 270.631 321.345 270.28 320.978C269.929 320.611 269.656 320.177 269.479 319.7C269.302 319.224 269.224 318.717 269.25 318.21L270.25 295.09C270.308 294.04 270.763 293.051 271.522 292.323C272.281 291.596 273.288 291.184 274.34 291.17H297.46C297.967 291.168 298.469 291.269 298.936 291.468C299.402 291.667 299.824 291.958 300.174 292.325C300.524 292.692 300.795 293.126 300.972 293.602C301.148 294.077 301.226 294.584 301.2 295.09L300.2 318.21C300.139 319.264 299.679 320.256 298.914 320.984C298.149 321.712 297.136 322.122 296.08 322.13Z" fill="#FAFAFA"/>
<path d="M331.37 322.13H308.25C307.743 322.132 307.241 322.031 306.774 321.832C306.308 321.633 305.886 321.342 305.536 320.975C305.186 320.608 304.915 320.174 304.738 319.698C304.562 319.223 304.484 318.716 304.51 318.21L305.51 295.09C305.571 294.039 306.027 293.05 306.788 292.323C307.549 291.595 308.557 291.183 309.61 291.17H332.72C333.228 291.167 333.731 291.267 334.199 291.465C334.667 291.663 335.089 291.954 335.44 292.321C335.791 292.689 336.064 293.123 336.241 293.599C336.418 294.076 336.496 294.583 336.47 295.09L335.47 318.21C335.407 319.26 334.95 320.248 334.189 320.975C333.429 321.701 332.422 322.114 331.37 322.13Z" fill="#FAFAFA"/>
<path d="M366.65 322.13H343.54C343.032 322.133 342.53 322.033 342.062 321.835C341.595 321.637 341.173 321.345 340.823 320.978C340.473 320.611 340.201 320.176 340.025 319.7C339.849 319.224 339.773 318.717 339.8 318.21L340.8 295.09C340.861 294.039 341.317 293.05 342.078 292.323C342.839 291.595 343.847 291.183 344.9 291.17H368.01C368.517 291.168 369.02 291.269 369.487 291.468C369.954 291.666 370.376 291.958 370.727 292.325C371.078 292.691 371.35 293.126 371.528 293.601C371.705 294.076 371.784 294.583 371.76 295.09L370.71 318.21C370.652 319.255 370.202 320.239 369.449 320.966C368.696 321.693 367.696 322.109 366.65 322.13Z" fill="#FAFAFA"/>
</g>
<path d="M188.6 358H165.48C164.973 358.002 164.471 357.901 164.004 357.702C163.538 357.503 163.116 357.212 162.766 356.845C162.416 356.478 162.145 356.044 161.968 355.568C161.792 355.093 161.714 354.586 161.74 354.08L162.74 330.96C162.803 329.91 163.26 328.922 164.021 328.196C164.781 327.469 165.788 327.056 166.84 327.04H190C190.507 327.038 191.009 327.139 191.476 327.338C191.942 327.537 192.364 327.828 192.714 328.195C193.064 328.562 193.335 328.997 193.512 329.472C193.688 329.947 193.766 330.454 193.74 330.96L192.74 354.08C192.676 355.137 192.213 356.13 191.445 356.858C190.676 357.586 189.659 357.994 188.6 358Z" fill="#12743B"/>
<path d="M223.89 358H200.77C200.263 358.002 199.761 357.901 199.294 357.702C198.828 357.504 198.406 357.212 198.056 356.845C197.706 356.478 197.435 356.044 197.258 355.568C197.082 355.093 197.004 354.587 197.03 354.08L198.03 330.96C198.091 329.909 198.547 328.92 199.308 328.193C200.069 327.466 201.077 327.054 202.13 327.04H225.24C225.752 327.037 226.259 327.138 226.73 327.338C227.201 327.539 227.626 327.834 227.979 328.205C228.331 328.576 228.604 329.016 228.779 329.497C228.955 329.977 229.03 330.489 229 331L228 354.08C227.942 355.134 227.484 356.125 226.721 356.853C225.957 357.582 224.945 357.992 223.89 358Z" fill="#12743B"/>
<path d="M259.17 358H236.06C235.552 358.004 235.05 357.903 234.582 357.705C234.115 357.507 233.693 357.215 233.343 356.848C232.993 356.481 232.721 356.046 232.545 355.57C232.369 355.094 232.293 354.587 232.32 354.08L233.32 330.96C233.381 329.909 233.837 328.92 234.598 328.193C235.359 327.466 236.367 327.054 237.42 327.04H260.53C261.037 327.037 261.54 327.137 262.008 327.335C262.475 327.533 262.897 327.825 263.247 328.192C263.597 328.559 263.869 328.994 264.045 329.47C264.221 329.946 264.297 330.453 264.27 330.96L263.27 354.08C263.209 355.131 262.753 356.12 261.992 356.847C261.231 357.575 260.223 357.987 259.17 358Z" fill="#12743B"/>
<path d="M294.46 358H271.35C270.842 358.002 270.34 357.9 269.873 357.702C269.406 357.503 268.984 357.212 268.633 356.845C268.282 356.478 268.01 356.044 267.832 355.569C267.655 355.093 267.576 354.587 267.6 354.08L268.6 330.96C268.658 329.91 269.113 328.921 269.872 328.193C270.631 327.466 271.638 327.053 272.69 327.04H295.81C296.325 327.03 296.836 327.128 297.311 327.326C297.787 327.524 298.216 327.818 298.572 328.19C298.928 328.562 299.203 329.004 299.38 329.487C299.557 329.971 299.632 330.486 299.6 331L298.6 354.12C298.529 355.17 298.062 356.155 297.294 356.875C296.526 357.595 295.513 357.997 294.46 358Z" fill="#12743B"/>
<path d="M329.75 358H306.63C306.123 358.002 305.621 357.901 305.154 357.702C304.688 357.503 304.266 357.212 303.916 356.845C303.566 356.478 303.295 356.044 303.118 355.568C302.942 355.093 302.864 354.586 302.89 354.08L303.89 330.96C303.943 329.901 304.398 328.902 305.161 328.167C305.925 327.431 306.94 327.014 308 327H331.12C331.627 326.998 332.129 327.099 332.596 327.298C333.062 327.497 333.484 327.788 333.834 328.155C334.184 328.522 334.455 328.956 334.632 329.432C334.808 329.907 334.886 330.414 334.86 330.92L333.86 354.04C333.807 355.099 333.352 356.098 332.589 356.833C331.825 357.569 330.81 357.986 329.75 358Z" fill="#12743B"/>
<path d="M365 358H341.92C341.412 358.004 340.91 357.903 340.442 357.705C339.975 357.507 339.553 357.215 339.203 356.848C338.853 356.481 338.581 356.046 338.405 355.57C338.229 355.094 338.153 354.587 338.18 354.08L339.18 330.96C339.241 329.909 339.697 328.92 340.458 328.193C341.219 327.465 342.227 327.054 343.28 327.04H366.39C366.897 327.038 367.4 327.139 367.867 327.338C368.334 327.536 368.756 327.828 369.107 328.195C369.458 328.561 369.73 328.996 369.908 329.471C370.085 329.947 370.164 330.453 370.14 330.96L369.09 354.08C369.032 355.13 368.577 356.119 367.818 356.846C367.059 357.574 366.051 357.986 365 358Z" fill="#12743B"/>
<g opacity="0.8">
<path d="M188.6 358H165.48C164.973 358.002 164.471 357.901 164.004 357.702C163.538 357.503 163.116 357.212 162.766 356.845C162.416 356.478 162.145 356.044 161.968 355.568C161.792 355.093 161.714 354.586 161.74 354.08L162.74 330.96C162.803 329.91 163.26 328.922 164.021 328.196C164.781 327.469 165.788 327.056 166.84 327.04H190C190.507 327.038 191.009 327.139 191.476 327.338C191.942 327.537 192.364 327.828 192.714 328.195C193.064 328.562 193.335 328.997 193.512 329.472C193.688 329.947 193.766 330.454 193.74 330.96L192.74 354.08C192.676 355.137 192.213 356.13 191.445 356.858C190.676 357.586 189.659 357.994 188.6 358Z" fill="#FAFAFA"/>
<path d="M223.89 358H200.77C200.263 358.002 199.761 357.901 199.294 357.702C198.828 357.504 198.406 357.212 198.056 356.845C197.706 356.478 197.435 356.044 197.258 355.568C197.082 355.093 197.004 354.587 197.03 354.08L198.03 330.96C198.091 329.909 198.547 328.92 199.308 328.193C200.069 327.466 201.077 327.054 202.13 327.04H225.24C225.752 327.037 226.259 327.138 226.73 327.338C227.201 327.539 227.626 327.834 227.979 328.205C228.331 328.576 228.604 329.016 228.779 329.497C228.955 329.977 229.03 330.489 229 331L228 354.08C227.941 355.134 227.484 356.125 226.721 356.853C225.957 357.582 224.945 357.992 223.89 358Z" fill="#FAFAFA"/>
<path d="M259.17 358H236.06C235.552 358.004 235.05 357.903 234.582 357.705C234.115 357.507 233.693 357.215 233.343 356.848C232.993 356.481 232.721 356.046 232.545 355.57C232.369 355.094 232.293 354.587 232.32 354.08L233.32 330.96C233.381 329.909 233.837 328.92 234.598 328.193C235.359 327.466 236.367 327.054 237.42 327.04H260.53C261.037 327.037 261.54 327.137 262.008 327.335C262.475 327.533 262.897 327.825 263.247 328.192C263.597 328.559 263.869 328.994 264.045 329.47C264.221 329.946 264.297 330.453 264.27 330.96L263.27 354.08C263.209 355.131 262.753 356.12 261.992 356.847C261.231 357.575 260.223 357.987 259.17 358Z" fill="#FAFAFA"/>
<path d="M294.46 358H271.35C270.842 358.002 270.34 357.9 269.873 357.702C269.406 357.503 268.984 357.212 268.633 356.845C268.282 356.478 268.01 356.044 267.832 355.569C267.654 355.093 267.575 354.587 267.6 354.08L268.6 330.96C268.658 329.91 269.113 328.921 269.872 328.193C270.631 327.466 271.638 327.053 272.69 327.04H295.81C296.325 327.03 296.836 327.128 297.311 327.326C297.787 327.524 298.216 327.818 298.572 328.19C298.928 328.562 299.203 329.004 299.38 329.487C299.557 329.971 299.632 330.486 299.6 331L298.6 354.12C298.529 355.17 298.062 356.155 297.294 356.875C296.526 357.595 295.513 357.997 294.46 358Z" fill="#FAFAFA"/>
<path d="M329.75 358H306.63C306.123 358.002 305.621 357.901 305.154 357.702C304.688 357.503 304.266 357.212 303.916 356.845C303.566 356.478 303.295 356.044 303.118 355.568C302.942 355.093 302.864 354.586 302.89 354.08L303.89 330.96C303.943 329.901 304.398 328.902 305.161 328.167C305.925 327.431 306.94 327.014 308 327H331.12C331.627 326.998 332.129 327.099 332.596 327.298C333.062 327.497 333.484 327.788 333.834 328.155C334.184 328.522 334.455 328.956 334.632 329.432C334.808 329.907 334.886 330.414 334.86 330.92L333.86 354.04C333.807 355.099 333.352 356.098 332.589 356.833C331.825 357.569 330.81 357.986 329.75 358Z" fill="#FAFAFA"/>
<path d="M365 358H341.92C341.412 358.004 340.91 357.903 340.442 357.705C339.975 357.507 339.553 357.215 339.203 356.848C338.853 356.481 338.581 356.046 338.405 355.57C338.229 355.094 338.153 354.587 338.18 354.08L339.18 330.96C339.241 329.909 339.697 328.92 340.458 328.193C341.219 327.465 342.227 327.054 343.28 327.04H366.39C366.897 327.038 367.4 327.139 367.867 327.338C368.334 327.536 368.756 327.828 369.107 328.195C369.458 328.561 369.73 328.996 369.908 329.471C370.085 329.947 370.164 330.453 370.14 330.96L369.09 354.08C369.032 355.13 368.577 356.119 367.818 356.846C367.059 357.574 366.051 357.986 365 358Z" fill="#FAFAFA"/>
</g>
<path d="M187 393.86H163.86C163.352 393.864 162.85 393.763 162.382 393.565C161.915 393.367 161.493 393.075 161.143 392.708C160.793 392.341 160.521 391.906 160.345 391.43C160.169 390.954 160.093 390.447 160.12 389.94L161.12 366.83C161.181 365.779 161.637 364.791 162.398 364.063C163.159 363.336 164.167 362.924 165.22 362.91H188.34C188.847 362.907 189.35 363.007 189.818 363.205C190.285 363.403 190.707 363.695 191.057 364.062C191.407 364.429 191.679 364.864 191.855 365.34C192.031 365.816 192.107 366.323 192.08 366.83L191.08 389.94C191.022 390.989 190.569 391.976 189.812 392.703C189.054 393.431 188.05 393.844 187 393.86Z" fill="#12743B"/>
<path d="M222.27 393.86H199.15C198.642 393.864 198.14 393.763 197.672 393.565C197.205 393.367 196.783 393.076 196.433 392.708C196.083 392.341 195.811 391.906 195.635 391.43C195.459 390.954 195.383 390.447 195.41 389.94L196.41 366.83C196.468 365.779 196.924 364.788 197.686 364.061C198.447 363.333 199.457 362.921 200.51 362.91H223.62C224.128 362.905 224.632 363.005 225.101 363.202C225.569 363.4 225.992 363.691 226.343 364.059C226.695 364.426 226.967 364.861 227.144 365.338C227.32 365.815 227.397 366.323 227.37 366.83L226.37 389.94C226.314 390.993 225.859 391.984 225.097 392.713C224.335 393.441 223.324 393.852 222.27 393.86Z" fill="#12743B"/>
<path d="M257.55 393.86H234.44C233.932 393.864 233.43 393.763 232.962 393.565C232.495 393.367 232.073 393.075 231.723 392.708C231.373 392.341 231.101 391.906 230.925 391.43C230.749 390.954 230.673 390.447 230.7 389.94L231.7 366.83C231.758 365.779 232.214 364.788 232.976 364.06C233.737 363.332 234.747 362.921 235.8 362.91H259C259.508 362.907 260.011 363.007 260.479 363.205C260.947 363.403 261.369 363.695 261.72 364.062C262.071 364.429 262.344 364.864 262.521 365.34C262.698 365.816 262.776 366.323 262.75 366.83L261.7 389.94C261.641 391.001 261.178 391.998 260.406 392.727C259.634 393.456 258.612 393.862 257.55 393.86Z" fill="#12743B"/>
<path d="M292.84 393.86H269.73C269.222 393.864 268.719 393.763 268.251 393.565C267.783 393.367 267.361 393.076 267.01 392.709C266.659 392.342 266.386 391.907 266.209 391.431C266.032 390.955 265.954 390.448 265.98 389.94L266.98 366.83C267.036 365.779 267.49 364.789 268.249 364.061C269.009 363.333 270.018 362.921 271.07 362.91H294.19C294.697 362.907 295.2 363.007 295.668 363.205C296.135 363.403 296.556 363.695 296.907 364.062C297.257 364.429 297.529 364.864 297.705 365.34C297.881 365.816 297.957 366.323 297.93 366.83L296.93 389.94C296.872 390.99 296.417 391.979 295.658 392.707C294.899 393.434 293.891 393.847 292.84 393.86Z" fill="#12743B"/>
<path d="M328.13 393.86H305C304.493 393.864 303.99 393.763 303.522 393.565C303.055 393.367 302.633 393.075 302.283 392.708C301.933 392.341 301.661 391.906 301.485 391.43C301.309 390.954 301.233 390.447 301.26 389.94L302.26 366.83C302.321 365.779 302.777 364.791 303.538 364.063C304.299 363.336 305.307 362.924 306.36 362.91H329.48C329.988 362.907 330.49 363.007 330.958 363.205C331.425 363.403 331.847 363.695 332.197 364.062C332.547 364.429 332.819 364.864 332.995 365.34C333.171 365.816 333.247 366.323 333.22 366.83L332.22 389.94C332.16 390.989 331.704 391.977 330.945 392.704C330.187 393.431 329.181 393.844 328.13 393.86Z" fill="#12743B"/>
<path d="M363.42 393.86H340.3C339.792 393.864 339.29 393.763 338.822 393.565C338.355 393.367 337.933 393.075 337.583 392.708C337.233 392.341 336.961 391.906 336.785 391.43C336.609 390.954 336.533 390.447 336.56 389.94L337.56 366.83C337.618 365.779 338.074 364.788 338.836 364.06C339.597 363.332 340.607 362.921 341.66 362.91H364.77C365.278 362.907 365.781 363.007 366.249 363.205C366.717 363.403 367.139 363.695 367.49 364.062C367.841 364.429 368.114 364.864 368.291 365.34C368.468 365.816 368.546 366.323 368.52 366.83L367.47 389.94C367.415 390.984 366.966 391.969 366.215 392.696C365.464 393.423 364.465 393.839 363.42 393.86Z" fill="#12743B"/>
<g opacity="0.8">
<path d="M187 393.86H163.86C163.352 393.864 162.85 393.763 162.382 393.565C161.915 393.367 161.493 393.075 161.143 392.708C160.793 392.341 160.521 391.906 160.345 391.43C160.169 390.954 160.093 390.447 160.12 389.94L161.12 366.83C161.181 365.779 161.637 364.791 162.398 364.063C163.159 363.336 164.167 362.924 165.22 362.91H188.34C188.847 362.907 189.35 363.007 189.818 363.205C190.285 363.403 190.707 363.695 191.057 364.062C191.407 364.429 191.679 364.864 191.855 365.34C192.031 365.816 192.107 366.323 192.08 366.83L191.08 389.94C191.022 390.989 190.569 391.976 189.812 392.703C189.054 393.431 188.05 393.844 187 393.86Z" fill="#FAFAFA"/>
<path d="M222.27 393.86H199.15C198.642 393.864 198.14 393.763 197.672 393.565C197.205 393.367 196.783 393.076 196.433 392.708C196.083 392.341 195.811 391.906 195.635 391.43C195.459 390.954 195.383 390.447 195.41 389.94L196.41 366.83C196.468 365.779 196.924 364.788 197.686 364.061C198.447 363.333 199.457 362.921 200.51 362.91H223.62C224.128 362.905 224.632 363.005 225.101 363.202C225.569 363.4 225.992 363.691 226.343 364.059C226.695 364.426 226.967 364.861 227.144 365.338C227.32 365.815 227.397 366.323 227.37 366.83L226.37 389.94C226.314 390.993 225.859 391.984 225.097 392.713C224.335 393.441 223.324 393.852 222.27 393.86Z" fill="#FAFAFA"/>
<path d="M257.55 393.86H234.44C233.932 393.864 233.43 393.763 232.962 393.565C232.495 393.367 232.073 393.075 231.723 392.708C231.373 392.341 231.101 391.906 230.925 391.43C230.749 390.954 230.673 390.447 230.7 389.94L231.7 366.83C231.758 365.779 232.214 364.788 232.976 364.06C233.737 363.332 234.747 362.921 235.8 362.91H259C259.508 362.907 260.011 363.007 260.479 363.205C260.947 363.403 261.369 363.695 261.72 364.062C262.071 364.429 262.344 364.864 262.521 365.34C262.698 365.816 262.776 366.323 262.75 366.83L261.7 389.94C261.641 391.001 261.178 391.998 260.406 392.727C259.634 393.456 258.612 393.862 257.55 393.86Z" fill="#FAFAFA"/>
<path d="M292.84 393.86H269.73C269.222 393.864 268.719 393.763 268.251 393.565C267.783 393.367 267.361 393.076 267.01 392.709C266.659 392.342 266.386 391.907 266.209 391.431C266.032 390.955 265.954 390.448 265.98 389.94L266.98 366.83C267.036 365.779 267.49 364.789 268.249 364.061C269.009 363.333 270.018 362.921 271.07 362.91H294.19C294.697 362.907 295.2 363.007 295.668 363.205C296.135 363.403 296.556 363.695 296.907 364.062C297.257 364.429 297.529 364.864 297.705 365.34C297.881 365.816 297.957 366.323 297.93 366.83L296.93 389.94C296.872 390.99 296.417 391.979 295.658 392.707C294.899 393.434 293.891 393.847 292.84 393.86Z" fill="#FAFAFA"/>
<path d="M328.13 393.86H305C304.492 393.864 303.99 393.763 303.522 393.565C303.055 393.367 302.633 393.075 302.283 392.708C301.933 392.341 301.661 391.906 301.485 391.43C301.309 390.954 301.233 390.447 301.26 389.94L302.26 366.83C302.321 365.779 302.777 364.791 303.538 364.063C304.299 363.336 305.307 362.924 306.36 362.91H329.48C329.987 362.907 330.49 363.007 330.958 363.205C331.425 363.403 331.847 363.695 332.197 364.062C332.547 364.429 332.819 364.864 332.995 365.34C333.171 365.816 333.247 366.323 333.22 366.83L332.22 389.94C332.159 390.989 331.704 391.977 330.945 392.704C330.187 393.431 329.181 393.844 328.13 393.86Z" fill="#FAFAFA"/>
<path d="M363.42 393.86H340.3C339.792 393.864 339.29 393.763 338.822 393.565C338.355 393.367 337.933 393.075 337.583 392.708C337.233 392.341 336.961 391.906 336.785 391.43C336.609 390.954 336.533 390.447 336.56 389.94L337.56 366.83C337.618 365.779 338.074 364.788 338.836 364.06C339.597 363.332 340.607 362.921 341.66 362.91H364.77C365.278 362.907 365.781 363.007 366.249 363.205C366.717 363.403 367.139 363.695 367.49 364.062C367.841 364.429 368.114 364.864 368.291 365.34C368.468 365.816 368.546 366.323 368.52 366.83L367.47 389.94C367.415 390.984 366.966 391.969 366.215 392.696C365.464 393.423 364.465 393.839 363.42 393.86Z" fill="#FAFAFA"/>
</g>
<path d="M180.45 272.44C171.93 272.44 165.25 262.53 165.25 249.88C165.25 237.23 171.93 227.33 180.45 227.33C188.97 227.33 195.66 237.24 195.66 249.88C195.621 250.473 195.358 251.029 194.925 251.435C194.491 251.841 193.919 252.067 193.325 252.067C192.731 252.067 192.159 251.841 191.725 251.435C191.292 251.029 191.029 250.473 190.99 249.88C190.99 240.19 186.17 231.99 180.45 231.99C174.73 231.99 169.91 240.19 169.91 249.88C169.91 259.57 174.74 267.77 180.45 267.77C180.769 267.749 181.09 267.794 181.391 267.902C181.693 268.01 181.969 268.178 182.203 268.397C182.436 268.616 182.623 268.881 182.75 269.174C182.877 269.468 182.943 269.785 182.943 270.105C182.943 270.425 182.877 270.742 182.75 271.036C182.623 271.33 182.436 271.594 182.203 271.813C181.969 272.032 181.693 272.2 181.391 272.308C181.09 272.416 180.769 272.461 180.45 272.44Z" fill="#12743B"/>
<path d="M215.74 272.44C207.22 272.44 200.54 262.53 200.54 249.88C200.54 237.23 207.22 227.33 215.74 227.33C224.26 227.33 231 237.24 231 249.88C230.961 250.473 230.698 251.029 230.265 251.435C229.831 251.841 229.259 252.067 228.665 252.067C228.071 252.067 227.499 251.841 227.065 251.435C226.632 251.029 226.369 250.473 226.33 249.88C226.33 240.19 221.51 231.99 215.79 231.99C210.07 231.99 205.25 240.19 205.25 249.88C205.25 259.57 210.08 267.77 215.79 267.77C216.383 267.809 216.939 268.072 217.345 268.505C217.751 268.939 217.977 269.511 217.977 270.105C217.977 270.699 217.751 271.271 217.345 271.705C216.939 272.138 216.383 272.401 215.79 272.44H215.74Z" fill="#12743B"/>
<path d="M251 272.44C242.47 272.44 235.79 262.53 235.79 249.88C235.79 237.23 242.47 227.33 251 227.33C259.53 227.33 266.2 237.24 266.2 249.88C266.2 250.498 265.954 251.091 265.518 251.528C265.081 251.965 264.488 252.21 263.87 252.21C263.252 252.21 262.659 251.965 262.222 251.528C261.785 251.091 261.54 250.498 261.54 249.88C261.54 240.19 256.71 231.99 251 231.99C245.29 231.99 240.46 240.19 240.46 249.88C240.46 259.57 245.29 267.77 251 267.77C251.593 267.809 252.149 268.072 252.555 268.505C252.961 268.939 253.187 269.511 253.187 270.105C253.187 270.699 252.961 271.271 252.555 271.705C252.149 272.138 251.593 272.401 251 272.44Z" fill="#12743B"/>
<path d="M286.32 272.44C277.79 272.44 271.11 262.53 271.11 249.88C271.11 237.23 277.79 227.33 286.32 227.33C294.85 227.33 301.52 237.24 301.52 249.88C301.52 250.498 301.275 251.091 300.838 251.528C300.401 251.965 299.808 252.21 299.19 252.21C298.572 252.21 297.979 251.965 297.542 251.528C297.105 251.091 296.86 250.498 296.86 249.88C296.86 240.19 292.03 231.99 286.32 231.99C280.61 231.99 275.78 240.19 275.78 249.88C275.78 259.57 280.6 267.77 286.32 267.77C286.913 267.809 287.469 268.072 287.875 268.505C288.281 268.939 288.507 269.511 288.507 270.105C288.507 270.699 288.281 271.271 287.875 271.705C287.469 272.138 286.913 272.401 286.32 272.44Z" fill="#12743B"/>
<path d="M321.6 272.44C313.08 272.44 306.4 262.53 306.4 249.88C306.4 237.23 313.08 227.33 321.6 227.33C330.12 227.33 336.81 237.24 336.81 249.88C336.771 250.473 336.508 251.029 336.075 251.435C335.641 251.841 335.069 252.067 334.475 252.067C333.881 252.067 333.309 251.841 332.875 251.435C332.442 251.029 332.179 250.473 332.14 249.88C332.14 240.19 327.32 231.99 321.6 231.99C315.88 231.99 311.06 240.19 311.06 249.88C311.06 259.57 315.89 267.77 321.6 267.77C321.919 267.749 322.24 267.794 322.541 267.902C322.843 268.01 323.119 268.178 323.353 268.397C323.586 268.616 323.772 268.881 323.9 269.174C324.027 269.468 324.093 269.785 324.093 270.105C324.093 270.425 324.027 270.742 323.9 271.036C323.772 271.33 323.586 271.594 323.353 271.813C323.119 272.032 322.843 272.2 322.541 272.308C322.24 272.416 321.919 272.461 321.6 272.44Z" fill="#12743B"/>
<path d="M356.89 272.44C348.37 272.44 341.69 262.53 341.69 249.88C341.69 237.23 348.37 227.33 356.89 227.33C365.41 227.33 372.1 237.24 372.1 249.88C372.061 250.473 371.798 251.029 371.365 251.435C370.931 251.841 370.359 252.067 369.765 252.067C369.171 252.067 368.599 251.841 368.165 251.435C367.732 251.029 367.469 250.473 367.43 249.88C367.43 240.19 362.6 231.99 356.89 231.99C351.18 231.99 346.35 240.19 346.35 249.88C346.35 259.57 351.18 267.77 356.89 267.77C357.483 267.809 358.039 268.072 358.445 268.505C358.851 268.939 359.077 269.511 359.077 270.105C359.077 270.699 358.851 271.271 358.445 271.705C358.039 272.138 357.483 272.401 356.89 272.44Z" fill="#12743B"/>
<g opacity="0.3">
<path d="M180.45 272.44C171.93 272.44 165.25 262.53 165.25 249.88C165.25 237.23 171.93 227.33 180.45 227.33C188.97 227.33 195.66 237.24 195.66 249.88C195.621 250.473 195.358 251.029 194.925 251.435C194.491 251.841 193.919 252.067 193.325 252.067C192.731 252.067 192.159 251.841 191.725 251.435C191.292 251.029 191.029 250.473 190.99 249.88C190.99 240.19 186.17 231.99 180.45 231.99C174.73 231.99 169.91 240.19 169.91 249.88C169.91 259.57 174.74 267.77 180.45 267.77C180.769 267.749 181.09 267.794 181.391 267.902C181.693 268.01 181.969 268.178 182.203 268.397C182.436 268.616 182.623 268.881 182.75 269.174C182.877 269.468 182.943 269.785 182.943 270.105C182.943 270.425 182.877 270.742 182.75 271.036C182.623 271.33 182.436 271.594 182.203 271.813C181.969 272.032 181.693 272.2 181.391 272.308C181.09 272.416 180.769 272.461 180.45 272.44Z" fill="black"/>
<path d="M215.74 272.44C207.22 272.44 200.54 262.53 200.54 249.88C200.54 237.23 207.22 227.33 215.74 227.33C224.26 227.33 231 237.24 231 249.88C230.961 250.473 230.698 251.029 230.265 251.435C229.831 251.841 229.259 252.067 228.665 252.067C228.071 252.067 227.499 251.841 227.065 251.435C226.632 251.029 226.369 250.473 226.33 249.88C226.33 240.19 221.51 231.99 215.79 231.99C210.07 231.99 205.25 240.19 205.25 249.88C205.25 259.57 210.08 267.77 215.79 267.77C216.383 267.809 216.939 268.072 217.345 268.505C217.751 268.939 217.977 269.511 217.977 270.105C217.977 270.699 217.751 271.271 217.345 271.705C216.939 272.138 216.383 272.401 215.79 272.44H215.74Z" fill="black"/>
<path d="M251 272.44C242.47 272.44 235.79 262.53 235.79 249.88C235.79 237.23 242.47 227.33 251 227.33C259.53 227.33 266.2 237.24 266.2 249.88C266.2 250.498 265.954 251.091 265.518 251.528C265.081 251.965 264.488 252.21 263.87 252.21C263.252 252.21 262.659 251.965 262.222 251.528C261.785 251.091 261.54 250.498 261.54 249.88C261.54 240.19 256.71 231.99 251 231.99C245.29 231.99 240.46 240.19 240.46 249.88C240.46 259.57 245.29 267.77 251 267.77C251.593 267.809 252.149 268.072 252.555 268.505C252.961 268.939 253.187 269.511 253.187 270.105C253.187 270.699 252.961 271.271 252.555 271.705C252.149 272.138 251.593 272.401 251 272.44Z" fill="black"/>
<path d="M286.32 272.44C277.79 272.44 271.11 262.53 271.11 249.88C271.11 237.23 277.79 227.33 286.32 227.33C294.85 227.33 301.52 237.24 301.52 249.88C301.52 250.498 301.275 251.091 300.838 251.528C300.401 251.965 299.808 252.21 299.19 252.21C298.572 252.21 297.979 251.965 297.542 251.528C297.105 251.091 296.86 250.498 296.86 249.88C296.86 240.19 292.03 231.99 286.32 231.99C280.61 231.99 275.78 240.19 275.78 249.88C275.78 259.57 280.6 267.77 286.32 267.77C286.913 267.809 287.469 268.072 287.875 268.505C288.281 268.939 288.507 269.511 288.507 270.105C288.507 270.699 288.281 271.271 287.875 271.705C287.469 272.138 286.913 272.401 286.32 272.44Z" fill="black"/>
<path d="M321.6 272.44C313.08 272.44 306.4 262.53 306.4 249.88C306.4 237.23 313.08 227.33 321.6 227.33C330.12 227.33 336.81 237.24 336.81 249.88C336.771 250.473 336.508 251.029 336.075 251.435C335.641 251.841 335.069 252.067 334.475 252.067C333.881 252.067 333.309 251.841 332.875 251.435C332.442 251.029 332.179 250.473 332.14 249.88C332.14 240.19 327.32 231.99 321.6 231.99C315.88 231.99 311.06 240.19 311.06 249.88C311.06 259.57 315.89 267.77 321.6 267.77C321.92 267.749 322.24 267.794 322.541 267.902C322.843 268.01 323.119 268.178 323.353 268.397C323.586 268.616 323.773 268.881 323.9 269.174C324.027 269.468 324.093 269.785 324.093 270.105C324.093 270.425 324.027 270.742 323.9 271.036C323.773 271.33 323.586 271.594 323.353 271.813C323.119 272.032 322.843 272.2 322.541 272.308C322.24 272.416 321.92 272.461 321.6 272.44Z" fill="black"/>
<path d="M356.89 272.44C348.37 272.44 341.69 262.53 341.69 249.88C341.69 237.23 348.37 227.33 356.89 227.33C365.41 227.33 372.1 237.24 372.1 249.88C372.061 250.473 371.798 251.029 371.365 251.435C370.931 251.841 370.359 252.067 369.765 252.067C369.171 252.067 368.599 251.841 368.165 251.435C367.732 251.029 367.469 250.473 367.43 249.88C367.43 240.19 362.6 231.99 356.89 231.99C351.18 231.99 346.35 240.19 346.35 249.88C346.35 259.57 351.18 267.77 356.89 267.77C357.483 267.809 358.039 268.072 358.445 268.505C358.851 268.939 359.077 269.511 359.077 270.105C359.077 270.699 358.851 271.271 358.445 271.705C358.039 272.138 357.483 272.401 356.89 272.44Z" fill="black"/>
</g>
<path d="M288.68 323.42C280.52 321.8 271.36 323.69 268.09 332.29C265.46 339.21 268.83 346.71 276.09 348.54C282.49 350.15 293.53 348.18 295.81 340.8C298.42 332.36 287.81 329.62 281.86 329.12C280.07 328.97 280.08 331.77 281.86 331.92C284.57 332.15 287.67 332.3 290.07 333.79C295.07 336.92 293.01 341.94 288.75 344.34C284.49 346.74 277.96 347.34 273.75 344.68C269.15 341.75 269 335.31 271.75 331.11C275.36 325.56 281.95 324.94 287.89 326.11C289.65 326.46 290.4 323.76 288.63 323.41L288.68 323.42Z" fill="#12743B"/>
<path opacity="0.1" d="M288.68 323.42C280.52 321.8 271.36 323.69 268.09 332.29C265.46 339.21 268.83 346.71 276.09 348.54C282.49 350.15 293.53 348.18 295.81 340.8C298.42 332.36 287.81 329.62 281.86 329.12C280.07 328.97 280.08 331.77 281.86 331.92C284.57 332.15 287.67 332.3 290.07 333.79C295.07 336.92 293.01 341.94 288.75 344.34C284.49 346.74 277.96 347.34 273.75 344.68C269.15 341.75 269 335.31 271.75 331.11C275.36 325.56 281.95 324.94 287.89 326.11C289.65 326.46 290.4 323.76 288.63 323.41L288.68 323.42Z" fill="#FAFAFA"/>
<path d="M198.65 291.21C206.454 301.555 215.154 311.192 224.65 320.01C225.97 321.24 227.96 319.26 226.65 318.01C217.317 309.366 208.761 299.92 201.08 289.78C200.01 288.36 197.58 289.78 198.67 291.19L198.65 291.21Z" fill="#12743B"/>
<path d="M201.54 318.84C207.44 308.35 217.77 299.4 227.54 292.55C229 291.55 227.61 289.09 226.13 290.13C215.97 297.27 205.29 306.49 199.13 317.42C198.961 317.739 198.921 318.11 199.019 318.457C199.117 318.804 199.345 319.1 199.656 319.283C199.966 319.466 200.336 319.522 200.687 319.44C201.038 319.357 201.343 319.142 201.54 318.84Z" fill="#12743B"/>
<g opacity="0.2">
<path d="M198.65 291.21C206.454 301.555 215.154 311.192 224.65 320.01C225.97 321.24 227.96 319.26 226.65 318.01C217.317 309.366 208.761 299.92 201.08 289.78C200.01 288.36 197.58 289.78 198.67 291.19L198.65 291.21Z" fill="black"/>
<path d="M201.54 318.84C207.44 308.35 217.77 299.4 227.54 292.55C229 291.55 227.61 289.09 226.13 290.13C215.97 297.27 205.29 306.49 199.13 317.42C198.961 317.739 198.921 318.11 199.019 318.457C199.117 318.804 199.345 319.1 199.656 319.283C199.966 319.466 200.336 319.522 200.687 319.44C201.038 319.357 201.343 319.142 201.54 318.84Z" fill="black"/>
</g>
<path d="M309.87 300.16H328.12C328.47 300.131 328.795 299.971 329.033 299.712C329.27 299.454 329.402 299.116 329.402 298.765C329.402 298.414 329.27 298.076 329.033 297.818C328.795 297.56 328.47 297.4 328.12 297.37H309.87C309.52 297.4 309.195 297.56 308.957 297.818C308.72 298.076 308.588 298.414 308.588 298.765C308.588 299.116 308.72 299.454 308.957 299.712C309.195 299.971 309.52 300.131 309.87 300.16Z" fill="#12743B"/>
<path d="M309.66 305.35H320.24C320.611 305.35 320.967 305.202 321.23 304.94C321.493 304.677 321.64 304.321 321.64 303.95C321.64 303.579 321.493 303.222 321.23 302.96C320.967 302.697 320.611 302.55 320.24 302.55H309.66C309.289 302.55 308.933 302.697 308.67 302.96C308.407 303.222 308.26 303.579 308.26 303.95C308.26 304.321 308.407 304.677 308.67 304.94C308.933 305.202 309.289 305.35 309.66 305.35Z" fill="#12743B"/>
<g opacity="0.1">
<path d="M309.87 300.16H328.12C328.47 300.131 328.795 299.971 329.033 299.712C329.27 299.454 329.402 299.116 329.402 298.765C329.402 298.414 329.27 298.076 329.033 297.818C328.795 297.56 328.47 297.4 328.12 297.37H309.87C309.52 297.4 309.195 297.56 308.957 297.818C308.72 298.076 308.588 298.414 308.588 298.765C308.588 299.116 308.72 299.454 308.957 299.712C309.195 299.971 309.52 300.131 309.87 300.16Z" fill="#FAFAFA"/>
<path d="M309.66 305.35H320.24C320.611 305.35 320.967 305.202 321.23 304.94C321.493 304.677 321.64 304.321 321.64 303.95C321.64 303.579 321.493 303.222 321.23 302.96C320.967 302.697 320.611 302.55 320.24 302.55H309.66C309.289 302.55 308.933 302.697 308.67 302.96C308.407 303.222 308.26 303.579 308.26 303.95C308.26 304.321 308.407 304.677 308.67 304.94C308.933 305.202 309.289 305.35 309.66 305.35Z" fill="#FAFAFA"/>
</g>
<path d="M200.56 371.8H216.21C216.581 371.8 216.937 371.653 217.2 371.39C217.462 371.127 217.61 370.771 217.61 370.4C217.61 370.029 217.462 369.673 217.2 369.41C216.937 369.148 216.581 369 216.21 369H200.56C200.189 369 199.833 369.148 199.57 369.41C199.307 369.673 199.16 370.029 199.16 370.4C199.16 370.771 199.307 371.127 199.57 371.39C199.833 371.653 200.189 371.8 200.56 371.8Z" fill="#12743B"/>
<path d="M200 377.81H220.3C220.671 377.81 221.027 377.662 221.29 377.4C221.552 377.137 221.7 376.781 221.7 376.41C221.7 376.038 221.552 375.682 221.29 375.42C221.027 375.157 220.671 375.01 220.3 375.01H200C199.629 375.01 199.273 375.157 199.01 375.42C198.747 375.682 198.6 376.038 198.6 376.41C198.6 376.781 198.747 377.137 199.01 377.4C199.273 377.662 199.629 377.81 200 377.81Z" fill="#12743B"/>
<path d="M200 384H210.15C210.521 384 210.877 383.853 211.14 383.59C211.402 383.328 211.55 382.971 211.55 382.6C211.55 382.229 211.402 381.873 211.14 381.61C210.877 381.348 210.521 381.2 210.15 381.2H200C199.629 381.2 199.273 381.348 199.01 381.61C198.747 381.873 198.6 382.229 198.6 382.6C198.6 382.971 198.747 383.328 199.01 383.59C199.273 383.853 199.629 384 200 384Z" fill="#12743B"/>
<g opacity="0.1">
<path d="M200.56 371.8H216.21C216.581 371.8 216.937 371.653 217.2 371.39C217.462 371.127 217.61 370.771 217.61 370.4C217.61 370.029 217.462 369.673 217.2 369.41C216.937 369.148 216.581 369 216.21 369H200.56C200.189 369 199.833 369.148 199.57 369.41C199.307 369.673 199.16 370.029 199.16 370.4C199.16 370.771 199.307 371.127 199.57 371.39C199.833 371.653 200.189 371.8 200.56 371.8Z" fill="#FAFAFA"/>
<path d="M200 377.81H220.3C220.671 377.81 221.027 377.662 221.29 377.4C221.552 377.137 221.7 376.781 221.7 376.41C221.7 376.038 221.552 375.682 221.29 375.42C221.027 375.157 220.671 375.01 220.3 375.01H200C199.629 375.01 199.273 375.157 199.01 375.42C198.747 375.682 198.6 376.038 198.6 376.41C198.6 376.781 198.747 377.137 199.01 377.4C199.273 377.662 199.629 377.81 200 377.81Z" fill="#FAFAFA"/>
<path d="M200 384H210.15C210.521 384 210.877 383.853 211.14 383.59C211.402 383.328 211.55 382.971 211.55 382.6C211.55 382.229 211.402 381.873 211.14 381.61C210.877 381.348 210.521 381.2 210.15 381.2H200C199.629 381.2 199.273 381.348 199.01 381.61C198.747 381.873 198.6 382.229 198.6 382.6C198.6 382.971 198.747 383.328 199.01 383.59C199.273 383.853 199.629 384 200 384Z" fill="#FAFAFA"/>
</g>
<path d="M90.19 214.79L94.92 214.58L92.78 223.58C91.092 222.424 89.5536 221.064 88.2 219.53C87.8096 219.071 87.6159 218.477 87.6609 217.876C87.7058 217.275 87.9857 216.716 88.44 216.32L90.19 214.79Z" fill="#E4897B"/>
<path d="M100.41 219.43L98.29 226.75L92.78 223.56L94.92 214.58L100.41 219.43Z" fill="#E4897B"/>
<path d="M99.4773 175.974L89.7987 176.87L111.997 416.615L121.676 415.718L99.4773 175.974Z" fill="#12743B"/>
<path opacity="0.3" d="M99.4773 175.974L89.7987 176.87L111.997 416.615L121.676 415.718L99.4773 175.974Z" fill="black"/>
<path d="M118.839 174.176L109.16 175.072L131.359 414.817L141.037 413.921L118.839 174.176Z" fill="#12743B"/>
<path opacity="0.3" d="M118.839 174.176L109.16 175.072L131.359 414.817L141.037 413.921L118.839 174.176Z" fill="black"/>
<path d="M109.163 175.076L99.4845 175.972L121.683 415.716L131.361 414.82L109.163 175.076Z" fill="#12743B"/>
<path opacity="0.1" d="M109.163 175.076L99.4845 175.972L121.683 415.716L131.361 414.82L109.163 175.076Z" fill="black"/>
<path d="M107.12 158.31L98.41 159.12L89.8 176.87L118.84 174.18L107.12 158.31Z" fill="#12743B"/>
<g opacity="0.8">
<path d="M107.12 158.31L98.41 159.12L89.8 176.87L118.84 174.18L107.12 158.31Z" fill="#FAFAFA"/>
</g>
<path d="M102.1 151.51L98.41 159.12L107.12 158.31L102.1 151.51Z" fill="#263238"/>
<path d="M175.28 165.06C176.28 166.06 177.11 167.01 177.97 168.06C178.83 169.11 179.65 170.06 180.47 171.06C182.12 173.06 183.66 175.17 185.16 177.32C188.252 181.691 190.861 186.385 192.94 191.32C193.19 191.96 193.42 192.63 193.66 193.32L194.02 194.32C194.218 194.918 194.359 195.534 194.44 196.16C194.657 198.15 194.393 200.163 193.67 202.03C192.591 204.785 191.078 207.351 189.19 209.63C185.851 213.716 182.007 217.362 177.75 220.48L173.98 216.48C176.947 212.77 179.66 208.865 182.1 204.79C183.169 203.049 183.99 201.167 184.54 199.2C184.692 198.717 184.709 198.202 184.59 197.71L184.25 196.97C184.02 196.48 183.82 195.97 183.57 195.49C181.453 191.382 178.977 187.47 176.17 183.8C174.77 181.89 173.29 180.03 171.79 178.17C171.04 177.25 170.28 176.33 169.5 175.43L167.22 172.8L175.28 165.06Z" fill="#E4897B"/>
<path d="M167.93 219.53L172.19 227.96L176.36 224.37L172.94 218.38L167.93 219.53Z" fill="#E4897B"/>
<path d="M135.84 170C133.247 174.94 130.553 179.824 127.76 184.65C126.39 187.08 124.95 189.47 123.55 191.88L121.4 195.48L120.86 196.38C120.59 196.81 120.29 197.32 120.02 197.66C119.75 198 119.48 198.41 119.22 198.72C118.96 199.03 118.68 199.38 118.42 199.67C116.4 201.871 114.249 203.948 111.98 205.89C109.79 207.76 107.6 209.58 105.34 211.31C100.87 214.8 96.28 218.05 91.52 221.15L88.09 216.83L99.94 205.16C101.88 203.16 103.84 201.28 105.69 199.3C107.508 197.437 109.22 195.474 110.82 193.42C111.013 193.18 111.183 192.95 111.33 192.73C111.5 192.49 111.62 192.29 111.74 192.09C111.843 191.93 111.937 191.763 112.02 191.59L112.48 190.66L114.33 186.89C115.6 184.4 116.84 181.89 118.13 179.42C120.683 174.44 123.35 169.517 126.13 164.65L135.84 170Z" fill="#E4897B"/>
<path d="M163.91 136.22C163.78 136.8 163.99 137.35 164.36 137.45C164.73 137.55 165.14 137.15 165.27 136.57C165.4 135.99 165.18 135.44 164.81 135.34C164.44 135.24 164 135.64 163.91 136.22Z" fill="#263238"/>
<path d="M163.93 137.34C164.243 139.29 164.815 141.19 165.63 142.99C165.17 143.172 164.675 143.251 164.181 143.222C163.687 143.192 163.205 143.055 162.77 142.82L163.93 137.34Z" fill="#DE5753"/>
<path d="M165.44 132.7C165.369 132.701 165.299 132.68 165.24 132.64C164.871 132.415 164.452 132.282 164.02 132.254C163.588 132.226 163.155 132.304 162.76 132.48C162.674 132.514 162.578 132.513 162.492 132.478C162.406 132.442 162.337 132.375 162.3 132.29C162.266 132.204 162.267 132.108 162.303 132.022C162.338 131.937 162.405 131.868 162.49 131.83C162.995 131.613 163.546 131.522 164.094 131.564C164.643 131.605 165.173 131.779 165.64 132.07C165.678 132.095 165.711 132.128 165.736 132.166C165.761 132.204 165.778 132.247 165.787 132.291C165.795 132.336 165.794 132.382 165.785 132.427C165.775 132.471 165.756 132.513 165.73 132.55C165.697 132.597 165.654 132.635 165.604 132.661C165.553 132.687 165.497 132.701 165.44 132.7Z" fill="#263238"/>
<path d="M143.68 138.43C144.94 143.81 146.37 153.65 142.75 157.24C142.75 157.24 144.43 162.69 154.42 162.69C165.42 162.69 159.42 157.24 159.42 157.24C153.37 155.81 153.35 151.36 154.23 147.19L143.68 138.43Z" fill="#E4897B"/>
<path d="M141.39 159.11C140.53 157.39 139.59 155.41 141.39 154.79C143.33 154.11 154.1 153.42 157.87 154.69C158.875 154.959 159.735 155.608 160.269 156.5C160.803 157.393 160.968 158.458 160.73 159.47L141.39 159.11Z" fill="#12743B"/>
<path opacity="0.6" d="M141.39 159.11C140.53 157.39 139.59 155.41 141.39 154.79C143.33 154.11 154.1 153.42 157.87 154.69C158.875 154.959 159.735 155.608 160.269 156.5C160.803 157.393 160.968 158.458 160.73 159.47L141.39 159.11Z" fill="#FAFAFA"/>
<path d="M127 410C126.354 409.996 125.711 409.926 125.08 409.79C125.048 409.784 125.018 409.769 124.994 409.745C124.971 409.722 124.956 409.692 124.95 409.66C124.943 409.626 124.946 409.592 124.959 409.56C124.971 409.528 124.992 409.5 125.02 409.48C125.1 409.42 127.02 408.04 128.14 408.28C128.261 408.301 128.376 408.349 128.476 408.42C128.576 408.491 128.66 408.583 128.72 408.69C128.81 408.81 128.859 408.955 128.859 409.105C128.859 409.255 128.81 409.4 128.72 409.52C128.48 409.91 127.75 410 127 410ZM125.57 409.54C126.67 409.72 128.17 409.72 128.47 409.31C128.47 409.31 128.59 409.15 128.42 408.86C128.383 408.796 128.333 408.742 128.272 408.7C128.212 408.659 128.143 408.631 128.07 408.62C127.162 408.679 126.292 409.006 125.57 409.56V409.54Z" fill="#FAFAFA"/>
<path d="M125.12 409.82H125.03C125.004 409.805 124.983 409.783 124.968 409.757C124.954 409.73 124.948 409.7 124.95 409.67C124.95 409.58 125.04 407.46 125.87 406.76C125.97 406.671 126.087 406.604 126.215 406.564C126.343 406.525 126.477 406.513 126.61 406.53C126.745 406.53 126.875 406.577 126.979 406.663C127.084 406.748 127.154 406.868 127.18 407C127.34 407.82 125.94 409.42 125.18 409.83L125.12 409.82ZM126.49 406.82C126.346 406.822 126.208 406.875 126.1 406.97C125.609 407.642 125.337 408.448 125.32 409.28C126.04 408.71 126.93 407.5 126.84 407.02C126.84 406.97 126.84 406.85 126.57 406.82H126.49Z" fill="#FAFAFA"/>
<path d="M171.12 410C170.362 410 169.605 409.929 168.86 409.79C168.825 409.784 168.793 409.767 168.768 409.742C168.742 409.717 168.726 409.685 168.72 409.65C168.714 409.615 168.719 409.58 168.733 409.548C168.747 409.516 168.771 409.489 168.8 409.47C169.17 409.26 172.43 407.39 173.22 408.68C173.299 408.793 173.342 408.927 173.342 409.065C173.342 409.203 173.299 409.337 173.22 409.45C173 409.89 172.06 410 171.12 410ZM169.41 409.53C170.79 409.73 172.65 409.7 172.97 409.25C172.97 409.25 173.07 409.11 172.92 408.86C172.48 408.15 170.5 409 169.41 409.55V409.53Z" fill="#FAFAFA"/>
<path d="M168.89 409.82C168.857 409.829 168.823 409.829 168.79 409.82C168.765 409.802 168.745 409.778 168.733 409.749C168.721 409.721 168.716 409.69 168.72 409.66C168.72 409.58 168.84 407.6 169.72 406.83C169.853 406.708 170.013 406.617 170.186 406.565C170.359 406.513 170.541 406.501 170.72 406.53C171.21 406.58 171.35 406.83 171.38 407.03C171.52 407.88 169.85 409.43 168.97 409.83L168.89 409.82ZM170.57 406.82C170.348 406.817 170.133 406.899 169.97 407.05C169.444 407.694 169.139 408.489 169.1 409.32C169.98 408.78 171.1 407.55 171.03 407.04C171.03 406.99 171.03 406.86 170.67 406.82H170.57Z" fill="#FAFAFA"/>
<path d="M160.81 409.64H168.16L168.23 392.63H160.89L160.81 409.64Z" fill="#E4897B"/>
<path d="M116.7 409.64H124.05L127.09 392.63H119.74L116.7 409.64Z" fill="#E4897B"/>
<path d="M124.54 408.79H116.29C116.144 408.788 116.002 408.838 115.891 408.932C115.779 409.026 115.704 409.156 115.68 409.3L114.48 415.83C114.455 415.992 114.466 416.158 114.512 416.315C114.558 416.472 114.637 416.618 114.744 416.741C114.852 416.865 114.985 416.964 115.134 417.031C115.284 417.098 115.446 417.132 115.61 417.13C118.49 417.08 119.88 416.91 123.51 416.91C125.74 416.91 130.35 417.15 133.44 417.15C136.53 417.15 136.8 414.15 135.53 413.82C129.82 412.58 127.62 410.87 125.75 409.25C125.416 408.954 124.986 408.791 124.54 408.79Z" fill="#263238"/>
<path d="M168.08 408.79H160.08C159.934 408.788 159.792 408.838 159.68 408.932C159.569 409.026 159.494 409.156 159.47 409.3L158.27 415.83C158.242 415.991 158.25 416.156 158.293 416.313C158.336 416.471 158.413 416.617 158.519 416.741C158.625 416.865 158.758 416.964 158.906 417.032C159.055 417.099 159.217 417.133 159.38 417.13C162.27 417.08 166.44 416.91 170.08 416.91C174.34 416.91 178.02 417.15 183.01 417.15C186.01 417.15 186.74 414.15 185.47 413.82C179.67 412.56 174.97 412.43 169.89 409.37C169.353 409.012 168.726 408.811 168.08 408.79Z" fill="#263238"/>
<path d="M128.74 158.899C121.91 160.479 114.74 179.249 114.74 179.249L128.93 188.729C132.188 183.79 135.044 178.596 137.47 173.199C141.22 164.609 135.71 157.289 128.74 158.899Z" fill="#12743B"/>
<path opacity="0.7" d="M128.74 158.899C121.91 160.479 114.74 179.249 114.74 179.249L128.93 188.729C132.188 183.79 135.044 178.596 137.47 173.199C141.22 164.609 135.71 157.289 128.74 158.899Z" fill="black"/>
<path d="M134.13 170.87L128.26 188.28L128.93 188.73C128.93 188.73 131.61 184.73 134.46 179.4L134.13 170.87Z" fill="#12743B"/>
<path opacity="0.8" d="M134.13 170.87L128.26 188.28L128.93 188.73C128.93 188.73 131.61 184.73 134.46 179.4L134.13 170.87Z" fill="black"/>
<path d="M174.57 191.72C174.51 199.92 174.02 210.12 172.8 222.78H133.5C132.99 216.78 135.65 187.32 128.74 158.9C133.063 158.062 137.435 157.508 141.83 157.24C147.392 156.92 152.968 156.92 158.53 157.24C162.366 157.613 166.167 158.282 169.9 159.24C169.9 159.24 173.26 162.88 174.28 179.95C174.48 183.36 174.59 187.24 174.57 191.72Z" fill="#12743B"/>
<path opacity="0.7" d="M174.57 191.72C174.51 199.92 174.02 210.12 172.8 222.78H133.5C132.99 216.78 135.65 187.32 128.74 158.9C133.063 158.062 137.435 157.508 141.83 157.24C147.392 156.92 152.968 156.92 158.53 157.24C162.366 157.613 166.167 158.282 169.9 159.24C169.9 159.24 173.26 162.88 174.28 179.95C174.48 183.36 174.59 187.24 174.57 191.72Z" fill="black"/>
<path d="M174.57 191.72C172.19 187.38 167.87 178.67 168.48 173.72L174.28 180C174.48 183.36 174.59 187.24 174.57 191.72Z" fill="#12743B"/>
<path opacity="0.8" d="M174.57 191.72C172.19 187.38 167.87 178.67 168.48 173.72L174.28 180C174.48 183.36 174.59 187.24 174.57 191.72Z" fill="black"/>
<path d="M162.2 165.92C161.58 172.92 177.45 189.76 177.45 189.76L190.17 179.4C186.838 173.778 182.847 168.574 178.28 163.9C170.84 156.71 162.9 158.08 162.2 165.92Z" fill="#12743B"/>
<path opacity="0.7" d="M162.2 165.92C161.58 172.92 177.45 189.76 177.45 189.76L190.17 179.4C186.838 173.778 182.847 168.574 178.28 163.9C170.84 156.71 162.9 158.08 162.2 165.92Z" fill="black"/>
<path d="M168.23 392.64L168.19 401.4H160.85L160.88 392.64H168.23Z" fill="#CE6F64"/>
<path d="M119.74 392.64H127.09L125.52 401.4H118.17L119.74 392.64Z" fill="#CE6F64"/>
<path d="M145 130.15C143.93 137.39 142.94 141.55 145.72 146.15C146.604 147.64 147.878 148.859 149.406 149.676C150.933 150.493 152.655 150.877 154.384 150.785C156.114 150.693 157.786 150.13 159.218 149.156C160.65 148.182 161.789 146.835 162.51 145.26C165.38 139.26 166.66 128.42 160.35 123.84C159.019 122.812 157.44 122.153 155.773 121.928C154.105 121.704 152.409 121.923 150.853 122.562C149.297 123.202 147.937 124.24 146.909 125.572C145.882 126.904 145.223 128.483 145 130.15Z" fill="#E4897B"/>
<path d="M166.75 126.72C164.586 127.902 162.205 128.633 159.75 128.87C157.92 137.24 153.05 146.87 145.17 144.1C142.17 143.1 139.17 135.83 138.86 129.38C138.34 130.01 137.99 130.83 137.72 131.17C137.27 128.303 137.595 125.369 138.66 122.67C140.84 116.49 142.29 120.59 144.66 116.84C146.19 114.36 148.91 113.08 153.66 112.92C152.33 113.61 152.08 114.72 154.05 114.56C156.02 114.4 164.43 113.94 169.33 117.25C166.02 118 168.04 123.25 172.46 120.45C170.85 123.06 168.85 125.54 166.75 126.72Z" fill="#263238"/>
<path d="M154.09 134.63C154.118 136.471 154.735 138.255 155.85 139.72C157.34 141.64 159.05 140.72 159.46 138.56C159.82 136.64 159.46 133.32 157.6 132.16C155.74 131 154.08 132.43 154.09 134.63Z" fill="#E4897B"/>
<path d="M145.13 117.62C144.132 117.557 143.165 117.25 142.312 116.727C141.46 116.205 140.749 115.481 140.24 114.62C140.24 114.62 140.11 120.48 145.13 117.62Z" fill="#1E2A4C"/>
<path d="M158.85 222.78C158.85 222.78 152.69 278.92 148.92 299.95C144.8 322.95 128.92 399.71 128.92 399.71H115.42C115.42 399.71 125 324.84 127 302C129.15 277.25 133.54 222.74 133.54 222.74L158.85 222.78Z" fill="#12743B"/>
<path opacity="0.6" d="M158.85 222.78C158.85 222.78 152.69 278.92 148.92 299.95C144.8 322.95 128.92 399.71 128.92 399.71H115.42C115.42 399.71 125 324.84 127 302C129.15 277.25 133.54 222.74 133.54 222.74L158.85 222.78Z" fill="#FAFAFA"/>
<path d="M130.83 394.75C130.89 394.75 129.64 399.92 129.64 399.92H114.51L114.61 395.31L130.83 394.75Z" fill="#12743B"/>
<path opacity="0.1" d="M130.83 394.75C130.89 394.75 129.64 399.92 129.64 399.92H114.51L114.61 395.31L130.83 394.75Z" fill="#FAFAFA"/>
<path d="M154.36 242.78C144.79 244.67 147.2 280.62 149.07 299.11C151.35 286.04 154.45 260.89 156.54 243.04C155.863 242.71 155.095 242.618 154.36 242.78Z" fill="#12743B"/>
<path opacity="0.4" d="M154.36 242.78C144.79 244.67 147.2 280.62 149.07 299.11C151.35 286.04 154.45 260.89 156.54 243.04C155.863 242.71 155.095 242.618 154.36 242.78Z" fill="#FAFAFA"/>
<path d="M172.79 222.78C172.79 222.78 175.93 277.7 175.99 300.11C176.06 323.41 170.87 399.71 170.87 399.71H158.42C158.42 399.71 155.07 324.77 153.63 301.89C152.07 276.94 146.96 222.78 146.96 222.78H172.79Z" fill="#12743B"/>
<path opacity="0.6" d="M172.79 222.78C172.79 222.78 175.93 277.7 175.99 300.11C176.06 323.41 170.87 399.71 170.87 399.71H158.42C158.42 399.71 155.07 324.77 153.63 301.89C152.07 276.94 146.96 222.78 146.96 222.78H172.79Z" fill="#FAFAFA"/>
<path d="M175.8 215.72L172.31 216C172.026 216.024 171.75 216.11 171.504 216.254C171.257 216.398 171.046 216.595 170.885 216.83C170.724 217.066 170.618 217.334 170.574 217.616C170.53 217.898 170.549 218.186 170.63 218.46L172.07 223.31C172.192 223.704 172.407 224.063 172.697 224.356C172.987 224.649 173.343 224.868 173.736 224.993C174.129 225.119 174.546 225.148 174.953 225.078C175.359 225.007 175.742 224.84 176.07 224.59C177.873 222.912 179.166 220.759 179.8 218.38L175.8 215.72Z" fill="#E4897B"/>
<path d="M167.92 390.77C167.886 390.765 167.856 390.748 167.834 390.722C167.812 390.697 167.8 390.664 167.8 390.63C169.18 369.52 172.38 318.43 172.32 300.11C172.32 281.36 170.04 239.42 169.32 227.01C169.319 226.993 169.321 226.977 169.326 226.961C169.331 226.945 169.34 226.931 169.351 226.918C169.363 226.906 169.376 226.897 169.392 226.89C169.407 226.883 169.423 226.88 169.44 226.88C169.473 226.88 169.504 226.892 169.529 226.914C169.553 226.937 169.567 226.967 169.57 227C170.25 239.41 172.48 281.35 172.57 300.11C172.63 318.44 169.43 369.53 168.05 390.65C168.05 390.667 168.047 390.683 168.04 390.698C168.033 390.713 168.024 390.727 168.011 390.738C167.999 390.75 167.985 390.758 167.969 390.764C167.953 390.769 167.937 390.771 167.92 390.77Z" fill="#12743B"/>
<path opacity="0.3" d="M167.92 390.77C167.886 390.765 167.856 390.748 167.834 390.722C167.812 390.697 167.8 390.664 167.8 390.63C169.18 369.52 172.38 318.43 172.32 300.11C172.32 281.36 170.04 239.42 169.32 227.01C169.319 226.993 169.321 226.977 169.326 226.961C169.331 226.945 169.34 226.931 169.351 226.918C169.363 226.906 169.376 226.897 169.392 226.89C169.407 226.883 169.423 226.88 169.44 226.88C169.473 226.88 169.504 226.892 169.529 226.914C169.553 226.937 169.567 226.967 169.57 227C170.25 239.41 172.48 281.35 172.57 300.11C172.63 318.44 169.43 369.53 168.05 390.65C168.05 390.667 168.047 390.683 168.04 390.698C168.033 390.713 168.024 390.727 168.011 390.738C167.999 390.75 167.985 390.758 167.969 390.764C167.953 390.769 167.937 390.771 167.92 390.77Z" fill="#FAFAFA"/>
<path d="M173.07 394.75C173.13 394.75 172.57 399.92 172.57 399.92H157.43L156.84 395.31L173.07 394.75Z" fill="#12743B"/>
<path opacity="0.1" d="M173.07 394.75C173.13 394.75 172.57 399.92 172.57 399.92H157.43L156.84 395.31L173.07 394.75Z" fill="#FAFAFA"/>
</svg>
