<svg width="657" height="89" viewBox="0 0 657 89" fill="none" xmlns="http://www.w3.org/2000/svg">
<g style="mix-blend-mode:multiply">
<rect x="4.89062" y="4.92969" width="78.312" height="78.312" rx="39.156" fill="#EBEFFF"/>
<rect x="4.89062" y="4.92969" width="78.312" height="78.312" rx="39.156" stroke="#F5F6FF" stroke-width="9.789"/>
<path d="M31 48.6957L45.2541 55.8228C45.448 55.9198 45.545 55.9682 45.6467 55.9873C45.7368 56.0042 45.8292 56.0042 45.9193 55.9873C46.021 55.9682 46.118 55.9198 46.3119 55.8228L60.566 48.6957M31 41.3043L45.2541 34.1772C45.448 34.0802 45.545 34.0318 45.6467 34.0127C45.7368 33.9958 45.8292 33.9958 45.9193 34.0127C46.021 34.0318 46.118 34.0802 46.3119 34.1772L60.566 41.3043L46.3119 48.4313C46.118 48.5283 46.021 48.5767 45.9193 48.5958C45.8292 48.6127 45.7368 48.6127 45.6467 48.5958C45.545 48.5767 45.448 48.5283 45.2541 48.4313L31 41.3043Z" stroke="#4338CA" stroke-width="2.9566" stroke-linecap="round" stroke-linejoin="round"/>
</g>
</svg>
