<svg width="55" height="50" viewBox="0 0 55 50" fill="none" xmlns="http://www.w3.org/2000/svg">
<path d="M52.0482 19.9543H3.37305M25.2769 41.8581L44.2601 41.8581C46.9862 41.8581 48.3492 41.8581 49.3905 41.3275C50.3063 40.8609 51.051 40.1162 51.5176 39.2004C52.0482 38.1591 52.0482 36.7961 52.0482 34.07V15.5735C52.0482 12.8474 52.0482 11.4844 51.5176 10.4432C51.051 9.52731 50.3063 8.78268 49.3905 8.31601C48.3492 7.78548 46.9862 7.78548 44.2602 7.78548H39.8794M25.2769 41.8581L30.1444 46.7256M25.2769 41.8581L30.1444 36.9906M15.5418 41.8581H11.1611C8.435 41.8581 7.07197 41.8581 6.03075 41.3275C5.11487 40.8609 4.37024 40.1162 3.90357 39.2004C3.37305 38.1591 3.37305 36.7961 3.37305 34.07V15.5735C3.37305 12.8474 3.37305 11.4844 3.90357 10.4432C4.37024 9.52731 5.11487 8.78267 6.03076 8.31601C7.07197 7.78548 8.43501 7.78548 11.1611 7.78548H30.1444M30.1444 7.78548L25.2769 12.653M30.1444 7.78548L25.2769 2.91797" stroke="#344054" stroke-width="4.86751" stroke-linecap="round" stroke-linejoin="round"/>
</svg>
